<?xml version="1.0" encoding="UTF-8"?>
<svg version="1.1" xmlns="http://www.w3.org/2000/svg" width="628" height="397">
<path d="M0 0 C2.69414352 0.55389464 5.33966015 1.22717742 8 1.92578125 C10.16399721 2.41686291 12.33090295 2.89523943 14.5 3.36328125 C15.68207031 3.61851563 16.86414063 3.87375 18.08203125 4.13671875 C24.591796 5.44775811 31.14389574 6.49702144 37.70288086 7.52954102 C39.25741278 7.7976891 40.80574017 8.10413585 42.34594727 8.44506836 C52.15589469 10.5391999 62.08650918 10.30728949 72.07250977 10.38208008 C74.48749644 10.40361077 76.90169105 10.44296274 79.31640625 10.484375 C80.43034508 10.48454872 80.43034508 10.48454872 81.56678772 10.48472595 C83.64282227 10.52514648 83.64282227 10.52514648 87 10.92578125 C90.35317231 15.95553971 89.56631864 21.88150144 89.75 27.80078125 C89.80542969 29.08082031 89.86085938 30.36085938 89.91796875 31.6796875 C89.98177734 33.53013672 89.98177734 33.53013672 90.046875 35.41796875 C90.10633301 37.10962158 90.10633301 37.10962158 90.16699219 38.83544922 C89.99567933 42.00573891 89.46069144 44.11944849 88 46.92578125 C85.19019698 48.33068276 82.77620225 48.10781271 79.63671875 48.171875 C77.71762695 48.22118164 77.71762695 48.22118164 75.75976562 48.27148438 C73.72571558 48.31878786 71.69168998 48.36320012 69.6574707 48.40258789 C67.69203709 48.44251338 65.7268617 48.49456331 63.76171875 48.546875 C61.997677 48.58445923 61.997677 48.58445923 60.19799805 48.62280273 C53.68571003 49.23977727 49.59267163 52.53972648 44.5 56.3671875 C41.92584187 57.97201421 39.98457579 58.53672048 37 58.92578125 C36.67 59.91578125 36.34 60.90578125 36 61.92578125 C33.44080037 63.72725092 30.57320463 64.96150897 27.75 66.30078125 C26.98558594 66.69394531 26.22117187 67.08710938 25.43359375 67.4921875 C19.83321208 70.17147199 19.83321208 70.17147199 15.953125 69.02734375 C14 66.92578125 14 66.92578125 13.421875 64 C14.14096432 60.17619397 15.2566589 59.15709398 18.25 56.73828125 C19.43335938 55.75794922 19.43335938 55.75794922 20.640625 54.7578125 C22.74436637 53.12427823 24.86713804 51.52093039 27 49.92578125 C25.80922852 49.93625488 24.61845703 49.94672852 23.39160156 49.95751953 C18.97105926 49.99373681 14.55053007 50.01668807 10.12988281 50.03564453 C8.21709996 50.04569815 6.30433245 50.05934298 4.39160156 50.07666016 C1.64123748 50.10093647 -1.10892328 50.11227075 -3.859375 50.12109375 C-4.71368103 50.13141632 -5.56798706 50.14173889 -6.44818115 50.15237427 C-7.64897308 50.15260086 -7.64897308 50.15260086 -8.87402344 50.15283203 C-9.92659332 50.15949387 -9.92659332 50.15949387 -11.00042725 50.16629028 C-13.37529896 49.88064021 -14.9637067 49.16596631 -17 47.92578125 C-18 46.11328125 -18 46.11328125 -18 43.92578125 C-16.453125 41.33984375 -16.453125 41.33984375 -14 38.92578125 C-10.546875 38.21875 -10.546875 38.21875 -6.75 38.11328125 C-5.48671875 38.06558594 -4.2234375 38.01789063 -2.921875 37.96875 C-1.95765625 37.95457031 -0.9934375 37.94039062 0 37.92578125 C-1.18078125 37.87679687 -2.3615625 37.8278125 -3.578125 37.77734375 C-5.13543937 37.70229246 -6.69272991 37.62674564 -8.25 37.55078125 C-9.02730469 37.51984375 -9.80460937 37.48890625 -10.60546875 37.45703125 C-18.06439624 37.07452215 -18.06439624 37.07452215 -21 34.92578125 C-22 32.55078125 -22 32.55078125 -22 29.92578125 C-19.66731899 26.71533883 -18.2427534 25.98052989 -14.328125 25.09765625 C-12.97067718 24.93950699 -11.61103795 24.79927808 -10.25 24.67578125 C-9.55261719 24.5984375 -8.85523438 24.52109375 -8.13671875 24.44140625 C-6.42611567 24.2539429 -4.71320729 24.08772622 -3 23.92578125 C-3.75925781 23.80460937 -4.51851563 23.6834375 -5.30078125 23.55859375 C-6.29464844 23.39101562 -7.28851563 23.2234375 -8.3125 23.05078125 C-9.29863281 22.88835937 -10.28476562 22.7259375 -11.30078125 22.55859375 C-14 21.92578125 -14 21.92578125 -17 19.92578125 C-17.4375 17.48828125 -17.4375 17.48828125 -17 14.92578125 C-14.93026639 12.96326357 -13.58150117 12.01014411 -10.73828125 11.59765625 C-9.93777344 11.6234375 -9.13726562 11.64921875 -8.3125 11.67578125 C-7.44496094 11.7015625 -6.57742188 11.72734375 -5.68359375 11.75390625 C-1.76426863 12.00492562 2.10473991 12.42316704 6 12.92578125 C5.30132812 12.61125 4.60265625 12.29671875 3.8828125 11.97265625 C2.97273438 11.5446875 2.06265625 11.11671875 1.125 10.67578125 C0.22007812 10.258125 -0.68484375 9.84046875 -1.6171875 9.41015625 C-4.19972189 7.80136433 -4.95607186 6.73358797 -6 3.92578125 C-4.35793938 1.3880512 -3.16657989 -0.1175098 0 0 Z " fill="#0381C4" transform="translate(268,69.07421875)"/>
<path d="M0 0 C2.5625 0.9375 2.5625 0.9375 4.3125 3.4375 C5.83389303 7.69740047 6.22113222 11.43144532 6.5625 15.9375 C8.0475 10.4925 8.0475 10.4925 9.5625 4.9375 C11.2125 4.6075 12.8625 4.2775 14.5625 3.9375 C16.8515625 5.53125 16.8515625 5.53125 18.5625 7.9375 C19.95723537 15.78584142 18.09559548 24.21726917 16.5625 31.9375 C16.90023437 30.95007813 17.23796875 29.96265625 17.5859375 28.9453125 C18.03615533 27.65093623 18.48669284 26.35667113 18.9375 25.0625 C19.15921875 24.41152344 19.3809375 23.76054688 19.609375 23.08984375 C20.63212626 20.17199455 21.34806651 18.15193349 23.5625 15.9375 C26.6875 16.3125 26.6875 16.3125 29.5625 16.9375 C29.83194595 23.90055051 28.88442389 29.82759234 27.1875 36.5625 C25.34379649 44.22456934 23.86402099 51.70909081 23.01953125 59.55078125 C22.6663935 62.16762254 22.18802378 64.54129819 21.55761719 67.09057617 C20.51615136 71.72227114 20.23602877 76.1404727 20.18359375 80.875 C20.16659927 81.68114746 20.1496048 82.48729492 20.13209534 83.31787109 C20.07954765 85.85767077 20.03888067 88.39745736 20 90.9375 C19.95604622 93.50603375 19.90947069 96.07444406 19.85719299 98.64282227 C19.82525309 100.23305842 19.79835755 101.82340538 19.77696228 103.41381836 C19.67437662 108.82562338 19.67437662 108.82562338 18.5625 109.9375 C16.04155924 110.02597743 13.54819107 110.05277301 11.02734375 110.03515625 C9.89746788 110.03303383 9.89746788 110.03303383 8.74476624 110.03086853 C6.3298044 110.02525376 3.91493399 110.01269883 1.5 110 C-0.13346221 109.9949869 -1.76692586 109.99042366 -3.40039062 109.98632812 C-7.41279585 109.97527954 -11.42513241 109.95800506 -15.4375 109.9375 C-17.6099612 106.42232593 -17.65293705 103.64045596 -17.60546875 99.5546875 C-17.61255859 98.30429688 -17.61964844 97.05390625 -17.62695312 95.765625 C-17.62566258 93.15356307 -17.60517953 90.54143223 -17.56445312 87.9296875 C-17.64876259 80.0929216 -18.55224261 75.4633309 -23.51049805 69.34619141 C-26.85955636 65.15997459 -29.217883 60.39600874 -31.75 55.6875 C-32.27400391 54.73359375 -32.79800781 53.7796875 -33.33789062 52.796875 C-35.7964185 48.26386586 -38.05356401 43.93644454 -39.4375 38.9375 C-37.8125 36.875 -37.8125 36.875 -35.4375 34.9375 C-31.40370083 34.99290933 -29.83002487 35.56358105 -26.8828125 38.37109375 C-25.73425781 39.85802734 -25.73425781 39.85802734 -24.5625 41.375 C-23.78132813 42.36371094 -23.00015625 43.35242188 -22.1953125 44.37109375 C-20.4375 46.9375 -20.4375 46.9375 -20.4375 48.9375 C-19.7775 48.9375 -19.1175 48.9375 -18.4375 48.9375 C-18.46779297 48.22319824 -18.49808594 47.50889648 -18.52929688 46.77294922 C-19.49993475 23.60083645 -19.49993475 23.60083645 -19.625 14.625 C-19.63917969 13.61824219 -19.65335937 12.61148438 -19.66796875 11.57421875 C-19.41696458 8.70256082 -18.6388606 6.54440501 -17.4375 3.9375 C-14.625 3.625 -14.625 3.625 -11.4375 3.9375 C-9.625 6.3125 -9.625 6.3125 -8.4375 8.9375 C-8.1075 9.5975 -7.7775 10.2575 -7.4375 10.9375 C-7.128125 9.844375 -6.81875 8.75125 -6.5 7.625 C-5.85412103 5.38342006 -5.1751883 3.1505649 -4.4375 0.9375 C-2.4375 -0.0625 -2.4375 -0.0625 0 0 Z M-7.4375 17.9375 C-7.4375 21.8975 -7.4375 25.8575 -7.4375 29.9375 C-7.1075 29.9375 -6.7775 29.9375 -6.4375 29.9375 C-6.4375 25.9775 -6.4375 22.0175 -6.4375 17.9375 C-6.7675 17.9375 -7.0975 17.9375 -7.4375 17.9375 Z " fill="#0883C5" transform="translate(380.4375,86.0625)"/>
<path d="M0 0 C0.69891357 -0.00145523 1.39782715 -0.00291046 2.11791992 -0.00440979 C3.59395521 -0.00275158 5.07000793 0.00880138 6.54589844 0.02954102 C8.80478373 0.05849484 11.06132155 0.05015148 13.3203125 0.03710938 C14.75521974 0.04334714 16.19011956 0.0517384 17.625 0.0625 C18.93082031 0.07224854 20.23664063 0.08199707 21.58203125 0.09204102 C24.8125 0.49609375 24.8125 0.49609375 26.72973633 1.55371094 C28.41205151 4.57163644 28.29373155 7.6377157 28.32421875 11.0078125 C28.34216995 11.73603714 28.36012115 12.46426178 28.37861633 13.21455383 C28.43274213 15.53750846 28.4666208 17.86025741 28.5 20.18359375 C28.53317125 21.75979426 28.56766073 23.33596763 28.60351562 24.91210938 C28.6884693 28.77328911 28.75526876 32.63440762 28.8125 36.49609375 C29.8025 36.82609375 30.7925 37.15609375 31.8125 37.49609375 C31.8125 38.48609375 31.8125 39.47609375 31.8125 40.49609375 C32.4725 40.49609375 33.1325 40.49609375 33.8125 40.49609375 C43.83381439 57.97744366 43.83381439 57.97744366 46.8125 63.49609375 C47.18375 64.15867188 47.555 64.82125 47.9375 65.50390625 C49.2464823 68.48417846 48.93584548 71.28911118 48.8125 74.49609375 C45.46439366 75.35258607 43.48961653 75.77684938 40.25 74.43359375 C37.20517555 72.01334867 35.10996783 69.64690678 32.8125 66.49609375 C32.8125 65.50609375 32.8125 64.51609375 32.8125 63.49609375 C31.8225 63.16609375 30.8325 62.83609375 29.8125 62.49609375 C29.72421087 71.41329552 29.64240094 80.22664319 30.58203125 89.10546875 C31.18341577 95.34355901 31.229531 100.60458069 28.8125 106.49609375 C23.2948616 106.86393631 23.2948616 106.86393631 21.15893555 105.23510742 C19.58672669 103.20449207 19.32995185 102.0207934 19.08203125 99.484375 C19.00146484 98.72705078 18.92089844 97.96972656 18.83789062 97.18945312 C18.76763672 96.40376953 18.69738281 95.61808594 18.625 94.80859375 C18.54314453 94.01130859 18.46128906 93.21402344 18.37695312 92.39257812 C18.17699155 90.42824975 17.99317746 88.46228963 17.8125 86.49609375 C17.8031543 87.08100586 17.79380859 87.66591797 17.78417969 88.26855469 C17.73036721 90.92857955 17.64674551 93.58686597 17.5625 96.24609375 C17.54832031 97.16648437 17.53414063 98.086875 17.51953125 99.03515625 C17.27258666 105.85082698 17.27258666 105.85082698 14.9296875 109.13671875 C12.8125 110.49609375 12.8125 110.49609375 10.1875 110.49609375 C7.8125 109.49609375 7.8125 109.49609375 6.68994141 107.70410156 C5.7718145 105.3937121 5.50449092 103.64254855 5.3984375 101.16796875 C5.35976562 100.36875 5.32109375 99.56953125 5.28125 98.74609375 C5.2503125 97.92109375 5.219375 97.09609375 5.1875 96.24609375 C5.14882812 95.405625 5.11015625 94.56515625 5.0703125 93.69921875 C4.97634164 91.63185993 4.89334436 89.56400748 4.8125 87.49609375 C4.63074219 88.70007813 4.44898438 89.9040625 4.26171875 91.14453125 C4.00849246 92.72016151 3.75454891 94.29567662 3.5 95.87109375 C3.38205078 96.66515625 3.26410156 97.45921875 3.14257812 98.27734375 C2.95405273 99.41816406 2.95405273 99.41816406 2.76171875 100.58203125 C2.65174561 101.28376465 2.54177246 101.98549805 2.4284668 102.70849609 C1.8125 104.49609375 1.8125 104.49609375 -1.1875 106.49609375 C-5.72804054 105.95555321 -5.72804054 105.95555321 -7.1875 104.49609375 C-7.27450342 102.86136493 -7.29451063 101.2229532 -7.28515625 99.5859375 C-7.28193359 98.59658203 -7.27871094 97.60722656 -7.27539062 96.58789062 C-7.26701172 95.54697266 -7.25863281 94.50605469 -7.25 93.43359375 C-7.24548828 92.38880859 -7.24097656 91.34402344 -7.23632812 90.26757812 C-7.22449913 87.67702715 -7.20801689 85.08658816 -7.1875 82.49609375 C-7.45304688 83.26695312 -7.71859375 84.0378125 -7.9921875 84.83203125 C-8.34539062 85.83492188 -8.69859375 86.8378125 -9.0625 87.87109375 C-9.41054687 88.86882812 -9.75859375 89.8665625 -10.1171875 90.89453125 C-11.1875 93.49609375 -11.1875 93.49609375 -13.1875 95.49609375 C-15.6875 95.30859375 -15.6875 95.30859375 -18.1875 94.49609375 C-20.1875 91.49609375 -20.1875 91.49609375 -19.93359375 88.8203125 C-19.07046137 84.97462842 -18.18072424 81.13843595 -17.25 77.30859375 C-15.68600981 70.72782039 -14.24292894 64.18047707 -13.1875 57.49609375 C-13.00356689 56.45364502 -13.00356689 56.45364502 -12.81591797 55.39013672 C-10.4397025 41.79212449 -9.91672817 28.5184812 -10.29833984 14.75488281 C-10.3236377 13.4809668 -10.34893555 12.20705078 -10.375 10.89453125 C-10.42720703 9.18789307 -10.42720703 9.18789307 -10.48046875 7.44677734 C-9.78764615 0.46889903 -6.47091337 -0.00918256 0 0 Z " fill="#0380C4" transform="translate(249.1875,121.50390625)"/>
<path d="M0 0 C1.42662219 2.85324437 1.31033868 4.83454549 1 8 C-1.18601464 11.8017646 -4.06290113 13.79909273 -7.66015625 16.15625 C-8.47234619 16.69056641 -9.28453613 17.22488281 -10.12133789 17.77539062 C-11.05127563 18.38157227 -11.05127563 18.38157227 -12 19 C-10.80922852 18.99476318 -9.61845703 18.98952637 -8.39160156 18.98413086 C-3.9710363 18.96602212 0.44952569 18.95454647 4.87011719 18.94506836 C6.78288321 18.94004159 8.6956454 18.93321923 10.60839844 18.92456055 C13.3587336 18.91242252 16.10901793 18.9067551 18.859375 18.90234375 C19.71368103 18.89718246 20.56798706 18.89202118 21.44818115 18.88670349 C22.64897308 18.88659019 22.64897308 18.88659019 23.87402344 18.88647461 C24.57573669 18.884254 25.27744995 18.88203339 26.00042725 18.87974548 C28.10595088 19.0063719 29.97407628 19.42679979 32 20 C32.75 22.75 32.75 22.75 33 26 C30.66574248 29.37722364 29.16522861 29.96483086 25.109375 30.828125 C23.65807173 30.98644899 22.20469188 31.1266339 20.75 31.25 C19.63238281 31.36601562 19.63238281 31.36601562 18.4921875 31.484375 C16.66300372 31.67198359 14.83164126 31.83813403 13 32 C14.22976563 31.95359375 15.45953125 31.9071875 16.7265625 31.859375 C18.3593506 31.82183964 19.99216511 31.78544138 21.625 31.75 C22.43324219 31.71648437 23.24148438 31.68296875 24.07421875 31.6484375 C29.7185737 31.55665937 32.62086544 32.40032305 37 36 C36.75 38.875 36.75 38.875 36 42 C32.67968438 44.36253227 29.2272002 44.38636799 25.25 44.625 C24.07953125 44.69976562 22.9090625 44.77453125 21.703125 44.8515625 C20.81109375 44.90054688 19.9190625 44.94953125 19 45 C19.77085937 45.20496094 20.54171875 45.40992188 21.3359375 45.62109375 C22.33882813 45.89050781 23.34171875 46.15992188 24.375 46.4375 C25.37273437 46.70433594 26.37046875 46.97117188 27.3984375 47.24609375 C30 48 30 48 32 49 C31.75 52.375 31.75 52.375 31 56 C27.78229091 58.37603981 25.11229983 58.10274726 21.25 57.6875 C20.198125 57.57921875 19.14625 57.4709375 18.0625 57.359375 C17.051875 57.24078125 16.04125 57.1221875 15 57 C14.154375 56.90203125 13.30875 56.8040625 12.4375 56.703125 C10.62323589 56.4828215 8.81125328 56.24382256 7 56 C8.26457031 56.38091797 8.26457031 56.38091797 9.5546875 56.76953125 C10.65039062 57.11371094 11.74609375 57.45789063 12.875 57.8125 C13.96554687 58.14894531 15.05609375 58.48539063 16.1796875 58.83203125 C19 60 19 60 21 63 C20.625 65.6875 20.625 65.6875 20 68 C14.9943569 69.62507852 11.07737465 68.20222479 6.1875 66.875 C-15.52864641 61.4333805 -36.87940496 58.27649792 -59.25146484 58.9206543 C-60.4730127 58.95328369 -61.69456055 58.98591309 -62.953125 59.01953125 C-64.02723633 59.06182861 -65.10134766 59.10412598 -66.20800781 59.14770508 C-69.04284704 58.99773326 -70.60705726 58.47343901 -73 57 C-73.19275481 52.65882638 -73.37139593 48.31736798 -73.53710938 43.97509766 C-73.59542647 42.49870326 -73.65756463 41.02245456 -73.72363281 39.54638672 C-73.81805803 37.42181939 -73.89862513 35.29710326 -73.9765625 33.171875 C-74.02893066 31.8940918 -74.08129883 30.61630859 -74.13525391 29.29980469 C-74.00728342 26.17769442 -73.66891271 24.58596031 -72 22 C-70.67609253 21.970271 -70.67609253 21.970271 -69.32543945 21.93994141 C-66.03578043 21.86162134 -62.74656036 21.77492145 -59.45727539 21.68261719 C-58.0364627 21.64444851 -56.61555737 21.60957487 -55.19458008 21.578125 C-53.14631145 21.53220935 -51.09867392 21.47426195 -49.05078125 21.4140625 C-47.82012939 21.3826416 -46.58947754 21.3512207 -45.3215332 21.31884766 C-42.11803412 21.01133058 -39.84712062 20.47482879 -37 19 C-36.67 18.34 -36.34 17.68 -36 17 C-34.35986394 15.95705634 -32.68800256 14.9635482 -31 14 C-30.15179688 13.47019531 -29.30359375 12.94039062 -28.4296875 12.39453125 C-27.58664062 11.87246094 -26.74359375 11.35039062 -25.875 10.8125 C-25.02679688 10.28269531 -24.17859375 9.75289062 -23.3046875 9.20703125 C-21 8 -21 8 -18 8 C-18 7.34 -18 6.68 -18 6 C-16.13308826 4.98498002 -14.25604656 3.98857921 -12.375 3 C-11.33085937 2.443125 -10.28671875 1.88625 -9.2109375 1.3125 C-5.85853405 -0.0578255 -3.58045064 -0.2580505 0 0 Z " fill="#0581C4" transform="translate(359,181)"/>
<path d="M0 0 C5.05358014 -0.14845558 10.10588883 -0.25726186 15.16113281 -0.32958984 C16.88010771 -0.35974161 18.59892902 -0.4006713 20.31738281 -0.45263672 C22.79009864 -0.52553181 25.26077994 -0.55946901 27.734375 -0.5859375 C28.88459137 -0.63238907 28.88459137 -0.63238907 30.05804443 -0.67977905 C32.24121094 -0.68115234 32.24121094 -0.68115234 36 0 C38.39160156 2.84912109 38.39160156 2.84912109 40 6 C40.66 6.99 41.32 7.98 42 9 C43.65 6.03 45.3 3.06 47 0 C50.63 0 54.26 0 58 0 C57.34 1.65 56.68 3.3 56 5 C55.34 5 54.68 5 54 5 C54 6.32 54 7.64 54 9 C53.34 9 52.68 9 52 9 C51.34 10.98 50.68 12.96 50 15 C49.34 15 48.68 15 48 15 C47.2204542 17.80747455 46.8289851 20.42029808 46.68359375 23.328125 C46.62075195 24.52695312 46.62075195 24.52695312 46.55664062 25.75 C46.51732422 26.575 46.47800781 27.4 46.4375 28.25 C46.37272461 29.51070313 46.37272461 29.51070313 46.30664062 30.796875 C46.20091457 32.86440671 46.09998705 34.93218281 46 37 C39.84765625 37.09765625 39.84765625 37.09765625 38 37 C37.67 36.67 37.34 36.34 37 36 C37 34.2088974 37.00188872 32.41777441 37.01342773 30.62670898 C36.94816556 19.68283635 33.30524844 12.75092057 27 4 C26.67 5.32 26.34 6.64 26 8 C23.69 8.33 21.38 8.66 19 9 C18.97494385 9.81267334 18.9498877 10.62534668 18.92407227 11.46264648 C18.80850882 15.12110752 18.68560416 18.77928528 18.5625 22.4375 C18.52318359 23.71689453 18.48386719 24.99628906 18.44335938 26.31445312 C18.40146484 27.52939453 18.35957031 28.74433594 18.31640625 29.99609375 C18.27974854 31.12200928 18.24309082 32.2479248 18.20532227 33.40795898 C18 36 18 36 17 37 C13.5 37.125 13.5 37.125 10 37 C9 36 9 36 8.88647461 33.31616211 C8.89171143 32.14835205 8.89694824 30.98054199 8.90234375 29.77734375 C8.90556641 28.51728516 8.90878906 27.25722656 8.91210938 25.95898438 C8.92046597 24.61848891 8.92893093 23.27799412 8.9375 21.9375 C8.9425134 20.59310058 8.94707658 19.2486994 8.95117188 17.90429688 C8.96300512 14.60282059 8.97949029 11.30143197 9 8 C6.03 8 3.06 8 0 8 C0 5.36 0 2.72 0 0 Z " fill="#504D72" transform="translate(417,266)"/>
<path d="M0 0 C3.3 0 6.6 0 10 0 C13 4 13 4 13 7 C13.66 7 14.32 7 15 7 C17 10 17 10 17 13 C17.99 13.33 18.98 13.66 20 14 C21.6875 17.0625 21.6875 17.0625 23 20 C22.98839844 18.72382813 22.97679687 17.44765625 22.96484375 16.1328125 C22.95546583 14.46354313 22.94636563 12.79427217 22.9375 11.125 C22.92912109 10.28324219 22.92074219 9.44148438 22.91210938 8.57421875 C22.90727539 7.36572266 22.90727539 7.36572266 22.90234375 6.1328125 C22.89448853 5.01737061 22.89448853 5.01737061 22.88647461 3.87939453 C23 2 23 2 24 0 C26.97 0 29.94 0 33 0 C33.0246501 5.10863896 33.04283607 10.21724359 33.05493164 15.32592773 C33.05997204 17.06519168 33.0668043 18.80445136 33.07543945 20.54370117 C33.08751792 23.03825937 33.09323108 25.53276173 33.09765625 28.02734375 C33.10281754 28.80963852 33.10797882 29.59193329 33.11329651 30.39793396 C33.11349226 32.26567114 33.06199694 34.13329204 33 36 C31.44448318 37.55551682 29.93083146 37.36117608 27.7734375 37.5078125 C25.01011624 37.47388658 23.54373589 37.43870712 21.37207031 35.68652344 C19.95316594 33.81648024 18.77753498 31.9196966 17.625 29.875 C17.21378906 29.20984375 16.80257813 28.5446875 16.37890625 27.859375 C14.03346635 24.01315522 11.95927127 20.05758759 10 16 C9.97494385 16.60062256 9.9498877 17.20124512 9.92407227 17.82006836 C9.8084472 20.52611437 9.68557064 23.23178283 9.5625 25.9375 C9.50352539 27.35579102 9.50352539 27.35579102 9.44335938 28.80273438 C9.40146484 29.70185547 9.35957031 30.60097656 9.31640625 31.52734375 C9.26141968 32.77632446 9.26141968 32.77632446 9.20532227 34.05053711 C9 36 9 36 8 37 C5.36 37 2.72 37 0 37 C0 24.79 0 12.58 0 0 Z " fill="#4C496D" transform="translate(365,266)"/>
<path d="M0 0 C0.86818359 -0.01224609 1.73636719 -0.02449219 2.63085938 -0.03710938 C3.47068359 -0.03904297 4.31050781 -0.04097656 5.17578125 -0.04296875 C5.94446533 -0.04707764 6.71314941 -0.05118652 7.50512695 -0.05541992 C9.94466738 0.2161253 11.57159011 0.97364065 13.6875 2.1875 C13.6875 2.8475 13.6875 3.5075 13.6875 4.1875 C14.33074219 4.43113281 14.97398437 4.67476563 15.63671875 4.92578125 C17.6875 6.1875 17.6875 6.1875 18.33203125 8.10546875 C18.68934696 12.93338568 18.94300259 17.455221 17.6875 22.1875 C15.6875 23.4375 15.6875 23.4375 13.6875 24.1875 C13.3575 25.1775 13.0275 26.1675 12.6875 27.1875 C10.32136544 28.37056728 8.81969264 28.32104608 6.1875 28.3125 C5.3934375 28.31507813 4.599375 28.31765625 3.78125 28.3203125 C1.6875 28.1875 1.6875 28.1875 -0.3125 27.1875 C-0.3125 31.1475 -0.3125 35.1075 -0.3125 39.1875 C-3.6125 39.1875 -6.9125 39.1875 -10.3125 39.1875 C-10.33714849 33.79403012 -10.35533531 28.40059275 -10.36743164 23.00708008 C-10.37247231 21.17081125 -10.37930477 19.33454646 -10.38793945 17.49829102 C-10.40001672 14.86473599 -10.40573081 12.23123384 -10.41015625 9.59765625 C-10.41531754 8.77161392 -10.42047882 7.94557159 -10.42579651 7.09449768 C-10.42599205 5.12513632 -10.37454152 3.15588386 -10.3125 1.1875 C-8.08752688 -1.03747312 -2.98760941 0.00218872 0 0 Z M-0.3125 10.1875 C-0.78808206 12.089494 -0.78808206 12.089494 -0.6875 14.1875 C-0.69523438 14.88875 -0.70296875 15.59 -0.7109375 16.3125 C-0.453414 18.59808594 -0.453414 18.59808594 2.6875 20.1875 C5.27083333 20.10416667 5.27083333 20.10416667 7.6875 19.1875 C10.02046251 16.36032787 10.02046251 16.36032787 9.4375 13.125 C8.9281756 10.088041 8.9281756 10.088041 6.6875 8.1875 C2.64127498 7.81769987 2.64127498 7.81769987 -0.3125 10.1875 Z " fill="#6B6987" transform="translate(238.3125,274.8125)"/>
<path d="M0 0 C2.97 0 5.94 0 9 0 C9.33 8.91 9.66 17.82 10 27 C12.64 27 15.28 27 18 27 C19.31361698 24.37276604 19.21253909 22.27389439 19.31640625 19.3359375 C19.35830078 18.21445312 19.40019531 17.09296875 19.44335938 15.9375 C19.48267578 14.761875 19.52199219 13.58625 19.5625 12.375 C19.60568359 11.19164062 19.64886719 10.00828125 19.69335938 8.7890625 C19.79967426 5.85949672 19.90170642 2.92984412 20 0 C21.47906892 -0.02689216 22.95827483 -0.04634621 24.4375 -0.0625 C25.26121094 -0.07410156 26.08492188 -0.08570313 26.93359375 -0.09765625 C29 0 29 0 30 1 C30.25393557 4.34640139 30.18524082 7.70762101 30.1875 11.0625 C30.19974609 11.99255859 30.21199219 12.92261719 30.22460938 13.88085938 C30.25496018 28.27725563 30.25496018 28.27725563 25.5625 33.4375 C22.10366779 36.89633221 19.47249055 37.20351291 14.75 37.375 C9.89157622 37.33639001 7.12418202 36.4822371 3.33984375 33.484375 C-0.03810953 29.74203609 -0.24026444 26.4290885 -0.1953125 21.484375 C-0.18886719 20.23398437 -0.18242187 18.98359375 -0.17578125 17.6953125 C-0.15902344 16.39335937 -0.14226562 15.09140625 -0.125 13.75 C-0.11597656 12.43257813 -0.10695313 11.11515625 -0.09765625 9.7578125 C-0.07408533 6.50502538 -0.04118022 3.25260411 0 0 Z " fill="#5A5879" transform="translate(329,266)"/>
<path d="M0 0 C3 0.125 3 0.125 4 1.125 C4.04092937 3.45797433 4.04241723 5.79205225 4 8.125 C6.475 8.62 6.475 8.62 9 9.125 C9 11.435 9 13.745 9 16.125 C7.35 16.125 5.7 16.125 4 16.125 C4 19.755 4 23.385 4 27.125 C5.65 27.455 7.3 27.785 9 28.125 C9 30.765 9 33.405 9 36.125 C4.00245633 36.41897316 1.01581652 36.2229156 -3 33.125 C-5.49118953 29.3882157 -5.2065226 27.38048181 -5.125 22.9375 C-5.10695313 21.66519531 -5.08890625 20.39289063 -5.0703125 19.08203125 C-5.04710937 18.10621094 -5.02390625 17.13039063 -5 16.125 C-6.48011371 16.43298326 -7.95907325 16.746518 -9.4375 17.0625 C-10.26121094 17.23652344 -11.08492188 17.41054688 -11.93359375 17.58984375 C-13.97661204 17.93252994 -13.97661204 17.93252994 -15 19.125 C-15.21083753 21.79560873 -15.37591197 24.4502135 -15.5 27.125 C-15.86486486 34.98986486 -15.86486486 34.98986486 -17 36.125 C-19.64 36.125 -22.28 36.125 -25 36.125 C-25 26.885 -25 17.645 -25 8.125 C-22.69 8.125 -20.38 8.125 -18 8.125 C-17.34 8.785 -16.68 9.445 -16 10.125 C-15.484375 9.795 -14.96875 9.465 -14.4375 9.125 C-11.21973488 7.80489123 -8.4429472 7.99257895 -5 8.125 C-4.855625 6.990625 -4.71125 5.85625 -4.5625 4.6875 C-3.84768212 0.16032009 -3.84768212 0.16032009 0 0 Z " fill="#615F7F" transform="translate(316,266.875)"/>
<path d="M0 0 C7 0 7 0 9 1 C9.66 0.67 10.32 0.34 11 0 C16.29808682 -0.34741553 19.75766415 -0.53527987 24 3 C27.92841259 7.35310585 28.62950839 10.92417567 28.390625 16.59765625 C27.66606789 21.05368249 25.23149505 23.63167217 22.3125 26.875 C18.68749707 28.63851494 14.96299705 28.39782982 11 28 C10.34 27.67 9.68 27.34 9 27 C9 30.96 9 34.92 9 39 C6.03 39 3.06 39 0 39 C0 26.13 0 13.26 0 0 Z M9.6875 9.625 C7.68855968 11.93917754 7.68855968 11.93917754 8.0625 15.125 C8.76694687 18.29174932 8.76694687 18.29174932 12 20 C15.14221967 19.68493373 15.14221967 19.68493373 18 19 C19.1203061 14.17026575 19.1203061 14.17026575 17.8125 9.5625 C14.87589985 7.03094815 12.72411219 7.49116441 9.6875 9.625 Z " fill="#585678" transform="translate(197,275)"/>
<path d="M0 0 C3.79804695 2.32102869 6.48541709 5.07658918 7.890625 9.30078125 C8.81287061 14.46335178 7.86465246 17.86697852 5.25 22.375 C3.0625 23.8125 3.0625 23.8125 1.25 24.375 C1.25 25.035 1.25 25.695 1.25 26.375 C-3.90335604 28.09278535 -9.84805492 28.56659515 -14.95703125 26.46875 C-18.05644213 24.43292643 -19.54304297 22.79791219 -21.1875 19.4375 C-22.33143417 13.20941394 -21.96212077 8.97030715 -18.75 3.375 C-12.78265015 -1.27953288 -7.27483714 -1.65337208 0 0 Z M-7.75 6.375 C-10.43726558 8.4778059 -10.43726558 8.4778059 -12.75 11.375 C-12.6763784 15.12970151 -12.42158839 16.70341161 -9.75 19.375 C-6.22105052 19.28756309 -6.22105052 19.28756309 -2.75 18.375 C-0.4726499 15.55990007 -0.4726499 15.55990007 -0.75 12.375 C-1.48976471 9.0824288 -1.48976471 9.0824288 -4.8125 7.5 C-6.2665625 6.943125 -6.2665625 6.943125 -7.75 6.375 Z " fill="#585777" transform="translate(279.75,275.625)"/>
<path d="M0 0 C3.55815901 2.92559741 4.74759729 4.51760499 5.5234375 9.07421875 C5.92308402 17.41921862 5.92308402 17.41921862 3.75 21.140625 C-0.16033664 25.16827174 -3.832245 26.187799 -9.25 26.4375 C-14.5302894 26.41649089 -17.05183414 25.17832695 -20.7578125 21.5078125 C-23.16956663 18.58033737 -23.16234474 16.40544688 -23.1875 12.6875 C-23.20167969 11.74261719 -23.21585938 10.79773438 -23.23046875 9.82421875 C-22.90666782 5.85628528 -22.06348974 2.99259042 -19.125 0.25 C-13.51262142 -3.05139916 -5.64606253 -3.35711826 0 0 Z M-12 6 C-13.68864588 7.63709315 -13.68864588 7.63709315 -15 10 C-14.77962372 13.67293796 -14.63033454 15.36966546 -12 18 C-8.40320934 17.67673447 -8.40320934 17.67673447 -5 17 C-3.30653501 12.96069666 -3.30653501 12.96069666 -3.4375 8.6875 C-5.87703785 6.05279913 -8.54588645 6.25586026 -12 6 Z " fill="#4F4D70" transform="translate(188,277)"/>
<path d="M0 0 C3.63 0 7.26 0 11 0 C10.34 1.65 9.68 3.3 9 5 C8.34 5 7.68 5 7 5 C7 6.32 7 7.64 7 9 C6.34 9 5.68 9 5 9 C4.34 10.98 3.68 12.96 3 15 C2.34 15 1.68 15 1 15 C0.2204542 17.80747455 -0.1710149 20.42029808 -0.31640625 23.328125 C-0.35830078 24.12734375 -0.40019531 24.9265625 -0.44335938 25.75 C-0.48267578 26.575 -0.52199219 27.4 -0.5625 28.25 C-0.60568359 29.09046875 -0.64886719 29.9309375 -0.69335938 30.796875 C-0.79908543 32.86440671 -0.90001295 34.93218281 -1 37 C-7.15234375 37.09765625 -7.15234375 37.09765625 -9 37 C-9.33 36.67 -9.66 36.34 -10 36 C-10 34.20914154 -9.99811377 32.41826267 -9.98657227 30.62744141 C-10.04439657 20.92767776 -12.59720097 14.88408522 -18.06640625 6.9765625 C-20 4 -20 4 -20 1 C-19.34 1 -18.68 1 -18 1 C-18 2.32 -18 3.64 -18 5 C-15.69 5 -13.38 5 -11 5 C-10.67 4.01 -10.34 3.02 -10 2 C-7.525 5.465 -7.525 5.465 -5 9 C-3.35 6.03 -1.7 3.06 0 0 Z " fill="#595778" transform="translate(464,266)"/>
<path d="M0 0 C2.97 0 5.94 0 9 0 C9.0246501 5.10863896 9.04283607 10.21724359 9.05493164 15.32592773 C9.05997204 17.06519168 9.0668043 18.80445136 9.07543945 20.54370117 C9.08751792 23.03825937 9.09323108 25.53276173 9.09765625 28.02734375 C9.10281754 28.80963852 9.10797882 29.59193329 9.11329651 30.39793396 C9.11349226 32.26567114 9.06199694 34.13329204 9 36 C8.505 36.495 8.505 36.495 8 37 C5.36 37 2.72 37 0 37 C0 24.79 0 12.58 0 0 Z " fill="#595778" transform="translate(405,266)"/>
<path d="M0 0 C0.99 0 1.98 0 3 0 C2.67 0.66 2.34 1.32 2 2 C1.89992095 4.82281779 1.85905205 7.61499811 1.875 10.4375 C1.87790039 11.6594104 1.87790039 11.6594104 1.88085938 12.90600586 C1.91852517 18.17974047 2.21433698 23.36319146 2.76953125 28.609375 C3.37091577 34.84746526 3.417031 40.10848694 1 46 C-4.5176384 46.36784256 -4.5176384 46.36784256 -6.65356445 44.73901367 C-8.22577331 42.70839832 -8.48254815 41.52469965 -8.73046875 38.98828125 C-8.81103516 38.23095703 -8.89160156 37.47363281 -8.97460938 36.69335938 C-9.04486328 35.90767578 -9.11511719 35.12199219 -9.1875 34.3125 C-9.26935547 33.51521484 -9.35121094 32.71792969 -9.43554688 31.89648438 C-9.63550845 29.932156 -9.81932254 27.96619588 -10 26 C-10.01981934 26.59538574 -10.03963867 27.19077148 -10.06005859 27.80419922 C-10.15516126 30.49492153 -10.26489842 33.18485148 -10.375 35.875 C-10.4059375 36.81214844 -10.436875 37.74929687 -10.46875 38.71484375 C-10.50742187 39.61074219 -10.54609375 40.50664062 -10.5859375 41.4296875 C-10.6173584 42.25710449 -10.6487793 43.08452148 -10.68115234 43.93701172 C-11 46 -11 46 -13 48 C-12.67 37.44 -12.34 26.88 -12 16 C-10.68 16 -9.36 16 -8 16 C-7.67 18.97 -7.34 21.94 -7 25 C-5.68 25 -4.36 25 -3 25 C-2.855625 24.4225 -2.71125 23.845 -2.5625 23.25 C-2.21712875 21.86851499 -1.86039833 20.48973638 -1.48461914 19.11621094 C-1.00130388 17.00569373 -0.7981335 15.05051739 -0.68359375 12.890625 C-0.64169922 12.13652344 -0.59980469 11.38242188 -0.55664062 10.60546875 C-0.51732422 9.82816406 -0.47800781 9.05085937 -0.4375 8.25 C-0.39431641 7.45722656 -0.35113281 6.66445312 -0.30664062 5.84765625 C-0.20097009 3.89862185 -0.10002034 1.94933252 0 0 Z " fill="#2E94CB" transform="translate(277,182)"/>
<path d="M0 0 C0.6875 2.0625 0.6875 2.0625 1 4 C1.66 4 2.32 4 3 4 C4.1815224 7.5445672 3.64290553 9.35686868 3 13 C3.020625 14.03125 3.04125 15.0625 3.0625 16.125 C2.99879213 19.05556202 2.51603843 20.53643755 1 23 C1.33 23.33 1.66 23.66 2 24 C2.07226502 25.85287502 2.0838122 27.70833878 2.0625 29.5625 C2.05347656 30.57441406 2.04445312 31.58632813 2.03515625 32.62890625 C2.02355469 33.41136719 2.01195312 34.19382812 2 35 C-0.64 35 -3.28 35 -6 35 C-6 23.45 -6 11.9 -6 0 C-3 -1 -3 -1 0 0 Z M1 0 C1.66 0 2.32 0 3 0 C3 0.66 3 1.32 3 2 C2.34 2 1.68 2 1 2 C1 1.34 1 0.68 1 0 Z " fill="#454269" transform="translate(203,278)"/>
<path d="M0 0 C3.63983047 2.9927495 4.80606198 4.50830847 5.41796875 9.21484375 C5.49586618 12.57185212 5.54944962 15.68498728 5 19 C4.01 19.66 3.02 20.32 2 21 C2.33 19.68 2.66 18.36 3 17 C0.2897775 16.84943208 -1.54352551 16.77176275 -4 18 C-6.45647449 19.22823725 -8.2897775 19.15056792 -11 19 C-9 18 -7 17 -5 16 C-4.04932701 12.71585695 -3.89897803 11.30306592 -5 8 C-6.11375 7.896875 -7.2275 7.79375 -8.375 7.6875 C-10.169375 7.3471875 -10.169375 7.3471875 -12 7 C-12.66 6.01 -13.32 5.02 -14 4 C-13.67 3.01 -13.34 2.02 -13 1 C-14.65 1 -16.3 1 -18 1 C-17 -1 -17 -1 -15.4375 -1.625 C-10.08370361 -2.44866098 -4.76150377 -2.8311644 0 0 Z " fill="#6C6988" transform="translate(188,277)"/>
<path d="M0 0 C0.99 0.33 1.98 0.66 3 1 C3.99 0.67 4.98 0.34 6 0 C6.01981934 0.78648926 6.03963867 1.57297852 6.06005859 2.38330078 C6.15561233 5.96419042 6.26516936 9.54452098 6.375 13.125 C6.4059375 14.3625 6.436875 15.6 6.46875 16.875 C6.50742187 18.07382813 6.54609375 19.27265625 6.5859375 20.5078125 C6.6173584 21.60754395 6.6487793 22.70727539 6.68115234 23.84033203 C7.01436543 27.14235634 7.83646571 29.90132447 9 33 C10.65 33 12.3 33 14 33 C13.34 33.66 12.68 34.32 12 35 C9.5 34.875 9.5 34.875 7 34 C5.23824477 31.2192425 4.72560153 28.93070235 4.5859375 25.671875 C4.54726562 24.87265625 4.50859375 24.0734375 4.46875 23.25 C4.4378125 22.425 4.406875 21.6 4.375 20.75 C4.33632812 19.90953125 4.29765625 19.0690625 4.2578125 18.203125 C4.16384164 16.13576618 4.08084436 14.06791373 4 12 C3.81824219 13.20398438 3.63648438 14.40796875 3.44921875 15.6484375 C3.19599246 17.22406776 2.94204891 18.79958287 2.6875 20.375 C2.56955078 21.1690625 2.45160156 21.963125 2.33007812 22.78125 C2.20439453 23.54179687 2.07871094 24.30234375 1.94921875 25.0859375 C1.83924561 25.7876709 1.72927246 26.4894043 1.6159668 27.21240234 C1 29 1 29 -2 31 C-6.54054054 30.45945946 -6.54054054 30.45945946 -8 29 C-8.08685603 27.43827255 -8.10702219 25.87270656 -8.09765625 24.30859375 C-8.09443359 23.36435547 -8.09121094 22.42011719 -8.08789062 21.44726562 C-8.07951172 20.45404297 -8.07113281 19.46082031 -8.0625 18.4375 C-8.05798828 17.44041016 -8.05347656 16.44332031 -8.04882812 15.41601562 C-8.03700007 12.94395151 -8.02051849 10.47200482 -8 8 C-7.67 8 -7.34 8 -7 8 C-7 14.6 -7 21.2 -7 28 C-5.35 27.67 -3.7 27.34 -2 27 C-0.54815522 22.46298506 0.23509196 18.81938524 0 14 C-0.99 13.67 -1.98 13.34 -3 13 C-3.66 13.66 -4.32 14.32 -5 15 C-5.63122172 6.79411765 -5.63122172 6.79411765 -3.0625 3.5625 C-2.381875 3.046875 -1.70125 2.53125 -1 2 C-0.67 1.34 -0.34 0.68 0 0 Z M-3 14 C-1 15 -1 15 -1 15 Z " fill="#1485C3" transform="translate(250,197)"/>
<path d="M0 0 C17.33606557 -0.33196721 17.33606557 -0.33196721 22 2 C22 2.66 22 3.32 22 4 C23.98 4 25.96 4 28 4 C27.34 4.99 26.68 5.98 26 7 C23.11083984 7.34057617 23.11083984 7.34057617 19.4609375 7.29296875 C17.50800781 7.2784668 17.50800781 7.2784668 15.515625 7.26367188 C14.13541077 7.23860388 12.75520244 7.21320902 11.375 7.1875 C9.98699337 7.17245517 8.59897133 7.15876641 7.2109375 7.14648438 C3.80690491 7.1110257 0.40364378 7.06160298 -3 7 C-3.38218767 8.65614657 -3.71395102 10.32457024 -4 12 C-0.37321177 15.62678823 12.02933449 14.3488444 17.0625 14.5625 C18.02349609 14.60568359 18.98449219 14.64886719 19.97460938 14.69335938 C22.31630277 14.79821132 24.65807929 14.90037788 27 15 C27 15.66 27 16.32 27 17 C22.80039396 16.90625199 18.60133688 16.80011195 14.40234375 16.68261719 C12.97469602 16.64439976 11.54695437 16.60953428 10.11914062 16.578125 C8.06346132 16.53231599 6.00842446 16.4743502 3.953125 16.4140625 C2.71723633 16.3826416 1.48134766 16.3512207 0.20800781 16.31884766 C-2.78902421 16.02096913 -4.54155571 15.69524997 -7 14 C-8 11.625 -8 11.625 -8 9 C-5.66731899 5.78955758 -4.2427534 5.05474864 -0.328125 4.171875 C1.02932282 4.01372574 2.38896205 3.87349683 3.75 3.75 C4.79607422 3.63398437 4.79607422 3.63398437 5.86328125 3.515625 C7.57388433 3.32816165 9.28679271 3.16194497 11 3 C5.555 2.01 5.555 2.01 0 1 C0 0.67 0 0.34 0 0 Z " fill="#4499C6" transform="translate(254,90)"/>
<path d="M0 0 C2.82304338 1.96385626 3.07448 3.31919999 3.875 6.75 C4.28680227 11.3050374 3.28657476 14.05762973 1 18 C-1.1875 19.4375 -1.1875 19.4375 -3 20 C-3 20.66 -3 21.32 -3 22 C-6.14930893 23.04976964 -8.38814456 23.10131595 -11.6875 23.0625 C-12.68136719 23.05347656 -13.67523438 23.04445313 -14.69921875 23.03515625 C-15.83810547 23.01775391 -15.83810547 23.01775391 -17 23 C-17 22.67 -17 22.34 -17 22 C-13.7 21.67 -10.4 21.34 -7 21 C-7 19.68 -7 18.36 -7 17 C-9.64 16.67 -12.28 16.34 -15 16 C-14.67 15.34 -14.34 14.68 -14 14 C-11.67843403 13.59270772 -9.3431213 13.25561323 -7 13 C-6.20046862 9.71303767 -5.90341064 8.28976808 -7 5 C-8.99665314 3.31461399 -8.99665314 3.31461399 -11 2 C-8.03 2.495 -8.03 2.495 -5 3 C-5 2.67 -5 2.34 -5 2 C-3.35 2 -1.7 2 0 2 C0 1.34 0 0.68 0 0 Z " fill="#64637D" transform="translate(284,280)"/>
<path d="M0 0 C0.69891357 -0.00145523 1.39782715 -0.00291046 2.11791992 -0.00440979 C3.59395521 -0.00275158 5.07000793 0.00880138 6.54589844 0.02954102 C8.80478373 0.05849484 11.06132155 0.05015148 13.3203125 0.03710938 C14.75521974 0.04334714 16.19011956 0.0517384 17.625 0.0625 C18.93082031 0.07224854 20.23664063 0.08199707 21.58203125 0.09204102 C24.8125 0.49609375 24.8125 0.49609375 26.72973633 1.56738281 C28.38745311 4.52024923 28.29339103 7.48685271 28.32421875 10.7890625 C28.34216995 11.49509109 28.36012115 12.20111969 28.37861633 12.92854309 C28.43273178 15.18016616 28.46661722 17.43157718 28.5 19.68359375 C28.53317219 21.21161806 28.56766177 22.73961438 28.60351562 24.26757812 C28.68845825 28.01026364 28.75526248 31.75288616 28.8125 35.49609375 C27.8225 35.00109375 27.8225 35.00109375 26.8125 34.49609375 C26.4825 24.92609375 26.1525 15.35609375 25.8125 5.49609375 C24.4925 5.16609375 23.1725 4.83609375 21.8125 4.49609375 C21.8125 3.83609375 21.8125 3.17609375 21.8125 2.49609375 C12.2425 2.82609375 2.6725 3.15609375 -7.1875 3.49609375 C-7.23648438 6.60273438 -7.28546875 9.709375 -7.3359375 12.91015625 C-7.38999215 15.92859595 -7.44728206 18.94695817 -7.50488281 21.96533203 C-7.54309706 24.05837195 -7.57796298 26.15147585 -7.609375 28.24462891 C-7.65518959 31.25837016 -7.71315719 34.27167383 -7.7734375 37.28515625 C-7.78498871 38.21663483 -7.79653992 39.1481134 -7.80844116 40.1078186 C-7.95472955 46.59010697 -9.08671543 51.73749383 -12.1875 57.49609375 C-12.2851905 52.720663 -11.93675355 48.28253128 -11.18359375 43.5703125 C-9.89230299 34.76512812 -10.07488727 26.09203303 -10.30395508 17.21850586 C-10.35213509 15.1928092 -10.38142475 13.16669084 -10.41015625 11.140625 C-10.43859619 9.95831299 -10.46703613 8.77600098 -10.49633789 7.55786133 C-9.78555653 0.5112929 -6.57797079 -0.00933448 0 0 Z " fill="#70B5D7" transform="translate(249.1875,121.50390625)"/>
<path d="M0 0 C0.66 0 1.32 0 2 0 C2 2.31 2 4.62 2 7 C3.65 7 5.3 7 7 7 C7.33 6.01 7.66 5.02 8 4 C7.98839844 4.63808594 7.97679687 5.27617187 7.96484375 5.93359375 C7.95582031 6.75988281 7.94679687 7.58617187 7.9375 8.4375 C7.92589844 9.26121094 7.91429687 10.08492188 7.90234375 10.93359375 C7.76732652 12.99163938 7.76732652 12.99163938 9 14 C9 12.68 9 11.36 9 10 C9.99 10.33 10.98 10.66 12 11 C11.67 12.65 11.34 14.3 11 16 C10.34 16 9.68 16 9 16 C8.67 19.96 8.34 23.92 8 28 C5.36 28 2.72 28 0 28 C0 18.76 0 9.52 0 0 Z " fill="#454365" transform="translate(229,285)"/>
<path d="M0 0 C0.86882812 0.02707031 1.73765625 0.05414063 2.6328125 0.08203125 C4.11394531 0.16517578 4.11394531 0.16517578 5.625 0.25 C7.38457031 0.34861328 7.38457031 0.34861328 9.1796875 0.44921875 C14.72594528 0.80685271 20.15121827 1.26306057 25.625 2.25 C25.625 3.24 25.625 4.23 25.625 5.25 C19.025 4.92 12.425 4.59 5.625 4.25 C5.625 5.57 5.625 6.89 5.625 8.25 C2.64619115 9.24293628 0.60898802 9.38406411 -2.5 9.375 C-3.38945312 9.37757812 -4.27890625 9.38015625 -5.1953125 9.3828125 C-7.375 9.25 -7.375 9.25 -8.375 8.25 C-8.6875 5.875 -8.6875 5.875 -8.375 3.25 C-5.6082051 0.63794755 -3.77304897 -0.128773 0 0 Z " fill="#2490C9" transform="translate(259.375,80.75)"/>
<path d="M0 0 C0.33 0 0.66 0 1 0 C1 12.21 1 24.42 1 37 C3.64 37 6.28 37 9 37 C9 32.71 9 28.42 9 24 C9.66 23.67 10.32 23.34 11 23 C11.37125 22.0409375 11.37125 22.0409375 11.75 21.0625 C13.55317715 18.0872577 15.7381376 17.85092063 19 17 C19 17.66 19 18.32 19 19 C18.34 19 17.68 19 17 19 C17 19.99 17 20.98 17 22 C18.72476911 22.95502158 18.72476911 22.95502158 21 23 C23.71726759 21.35700099 24.58371969 20.74204647 26 18 C26.72262577 13.66948182 26.92936597 9.38573137 27 5 C27.33 5 27.66 5 28 5 C28.80744585 10.47820952 29.44274192 15.56197276 28 21 C26 22.25 26 22.25 24 23 C23.67 23.99 23.34 24.98 23 26 C20.63386544 27.18306728 19.13219264 27.13354608 16.5 27.125 C15.7059375 27.12757813 14.911875 27.13015625 14.09375 27.1328125 C12 27 12 27 10 26 C10 29.96 10 33.92 10 38 C6.7 38 3.4 38 0 38 C0 25.46 0 12.92 0 0 Z " fill="#B3B2C0" transform="translate(228,276)"/>
<path d="M0 0 C2.59419195 0.35056648 4.51163111 0.64356015 6.6484375 2.203125 C9.98496649 6.63897279 8.22879805 14.26934806 7.54296875 19.45703125 C7.07170737 22.31511283 6.56418244 25.15893844 6 28 C6.50660156 26.51886719 6.50660156 26.51886719 7.0234375 25.0078125 C7.47365533 23.71343623 7.92419284 22.41917113 8.375 21.125 C8.59671875 20.47402344 8.8184375 19.82304688 9.046875 19.15234375 C10.06962626 16.23449455 10.78556651 14.21443349 13 12 C16.125 12.375 16.125 12.375 19 13 C19 15.97 19 18.94 19 22 C18.67 22 18.34 22 18 22 C17.67 19.69 17.34 17.38 17 15 C15.68 15 14.36 15 13 15 C13.66 15.66 14.32 16.32 15 17 C15 17.99 15 18.98 15 20 C14.34 20.66 13.68 21.32 13 22 C13 22.66 13 23.32 13 24 C12.01 24 11.02 24 10 24 C10 24.66 10 25.32 10 26 C9.34 26 8.68 26 8 26 C7.67 27.98 7.34 29.96 7 32 C5.515 32.495 5.515 32.495 4 33 C4 27.06 4 21.12 4 15 C4.66 15 5.32 15 6 15 C5.67 11.7 5.34 8.4 5 5 C2.03 4.505 2.03 4.505 -1 4 C-0.67 2.68 -0.34 1.36 0 0 Z " fill="#3D97C8" transform="translate(391,90)"/>
<path d="M0 0 C5.61 0 11.22 0 17 0 C17 4.05480631 15.45129908 5.84832975 13 9 C12.01 9 11.02 9 10 9 C10 9.66 10 10.32 10 11 C9.01 11.495 9.01 11.495 8 12 C11.465 13.485 11.465 13.485 15 15 C14.73828125 16.87890625 14.73828125 16.87890625 14 19 C11.53151622 20.66636777 8.92539542 21.48876585 6 22 C3.5 21.0625 3.5 21.0625 2 19 C1.640625 16.1328125 1.640625 16.1328125 2 13 C3.828125 10.76953125 3.828125 10.76953125 6.25 8.8125 C7.43335938 7.83216797 7.43335938 7.83216797 8.640625 6.83203125 C10.74342246 5.19922991 12.8701666 3.59737505 15 2 C10.05 1.67 5.1 1.34 0 1 C0 0.67 0 0.34 0 0 Z " fill="#097FBD" transform="translate(280,117)"/>
<path d="M0 0 C3.04386724 -0.08226668 5.07175348 0.02391783 8 1 C8.33 1.99 8.66 2.98 9 4 C9.99 4.66 10.98 5.32 12 6 C11.01 7.485 11.01 7.485 10 9 C9.62832816 11.76020996 9.82149364 14.18852476 10 17 C10.66 17.66 11.32 18.32 12 19 C11.01 19 10.02 19 9 19 C9 20.32 9 21.64 9 23 C8.34 22.67 7.68 22.34 7 22 C7 20.02 7 18.04 7 16 C6.195625 16.185625 5.39125 16.37125 4.5625 16.5625 C3.716875 16.706875 2.87125 16.85125 2 17 C1.67 16.67 1.34 16.34 1 16 C1.28730055 13.66055264 1.61936779 11.3260857 2 9 C1.34 9 0.68 9 0 9 C0 6.03 0 3.06 0 0 Z M8 5 C9 7 9 7 9 7 Z " fill="#47466A" transform="translate(229,276)"/>
<path d="M0 0 C0.66 0.515625 1.32 1.03125 2 1.5625 C6.84523787 3.88417648 10.95658991 2.6811367 16 1 C16.99 1.33 17.98 1.66 19 2 C18.17209495 5.3868843 17.54949495 7.50045913 14.9375 9.875 C10.99988602 11.38302238 7.16616536 11.79578439 3 11 C1.3515625 9.6015625 1.3515625 9.6015625 0 8 C-0.66 7.34 -1.32 6.68 -2 6 C-1.34 4.02 -0.68 2.04 0 0 Z " fill="#464369" transform="translate(172,292)"/>
<path d="M0 0 C0.83265381 0.00523682 1.66530762 0.01047363 2.52319336 0.01586914 C3.42231445 0.0190918 4.32143555 0.02231445 5.24780273 0.02563477 C6.66609375 0.03820312 6.66609375 0.03820312 8.11303711 0.05102539 C9.06243164 0.05553711 10.01182617 0.06004883 10.98999023 0.06469727 C13.34356776 0.07652429 15.69702188 0.09300514 18.05053711 0.11352539 C18.05053711 0.44352539 18.05053711 0.77352539 18.05053711 1.11352539 C13.59553711 1.60852539 13.59553711 1.60852539 9.05053711 2.11352539 C10.28030273 2.06711914 11.51006836 2.02071289 12.77709961 1.97290039 C14.40988771 1.93536503 16.04270222 1.89896677 17.67553711 1.86352539 C18.4837793 1.83000977 19.29202148 1.79649414 20.12475586 1.76196289 C25.76911081 1.67018476 28.67140255 2.51384844 33.05053711 6.11352539 C32.72053711 8.09352539 32.39053711 10.07352539 32.05053711 12.11352539 C30.73053711 12.44352539 29.41053711 12.77352539 28.05053711 13.11352539 C27.72053711 10.80352539 27.39053711 8.49352539 27.05053711 6.11352539 C25.73053711 6.44352539 24.41053711 6.77352539 23.05053711 7.11352539 C23.05053711 6.12352539 23.05053711 5.13352539 23.05053711 4.11352539 C21.70862305 4.22180664 21.70862305 4.22180664 20.33959961 4.33227539 C13.22531563 4.87836115 6.18570858 5.26148978 -0.94946289 5.11352539 C-1.60946289 3.79352539 -2.26946289 2.47352539 -2.94946289 1.11352539 C-1.94946289 0.11352539 -1.94946289 0.11352539 0 0 Z " fill="#4C9ECD" transform="translate(362.949462890625,210.886474609375)"/>
<path d="M0 0 C0.6875 2.0625 0.6875 2.0625 1 4 C1.66 4 2.32 4 3 4 C4.16952466 7.50857397 3.76017128 9.42719497 3 13 C2.67 13.66 2.34 14.32 2 15 C1.34 14.67 0.68 14.34 0 14 C0 13.34 0 12.68 0 12 C-0.99 12.33 -1.98 12.66 -3 13 C-3.33 12.67 -3.66 12.34 -4 12 C-4.33 19.59 -4.66 27.18 -5 35 C-5.33 35 -5.66 35 -6 35 C-6 23.45 -6 11.9 -6 0 C-3 -1 -3 -1 0 0 Z M1 0 C1.66 0 2.32 0 3 0 C3 0.66 3 1.32 3 2 C2.34 2 1.68 2 1 2 C1 1.34 1 0.68 1 0 Z " fill="#504F6F" transform="translate(203,278)"/>
<path d="M0 0 C3.82923821 3.82923821 2.59023313 10.63038437 2.75 15.8125 C2.80542969 17.09705078 2.86085938 18.38160156 2.91796875 19.70507812 C2.96050781 20.94322266 3.00304687 22.18136719 3.046875 23.45703125 C3.08651367 24.59116455 3.12615234 25.72529785 3.16699219 26.89379883 C2.99612608 30.0720584 2.4654116 32.18746829 1 35 C-1.80980302 36.40490151 -4.22379775 36.18203146 -7.36328125 36.24609375 C-8.64267578 36.27896484 -9.92207031 36.31183594 -11.24023438 36.34570312 C-13.27428442 36.39300661 -15.30831002 36.43741887 -17.3425293 36.47680664 C-19.30796291 36.51673213 -21.2731383 36.56878206 -23.23828125 36.62109375 C-25.002323 36.65867798 -25.002323 36.65867798 -26.80200195 36.69702148 C-31.38608399 37.13131768 -34.95836439 38.90433709 -39 41 C-39.625 39.125 -39.625 39.125 -40 37 C-39.34 36.34 -38.68 35.68 -38 35 C-38 35.66 -38 36.32 -38 37 C-36.9989624 36.5155542 -35.9979248 36.0311084 -34.96655273 35.53198242 C-31.11852502 33.8887608 -27.7371492 33.57545953 -23.53515625 33.48828125 C-21.67322632 33.43861206 -21.67322632 33.43861206 -19.77368164 33.38793945 C-18.2189917 33.36304443 -16.66430176 33.33814941 -15.0625 33.3125 C-10.091875 33.209375 -5.12125 33.10625 0 33 C0 22.11 0 11.22 0 0 Z " fill="#6EB0D6" transform="translate(355,81)"/>
<path d="M0 0 C0.99 0.350625 1.98 0.70125 3 1.0625 C3.66 1.0625 4.32 1.0625 5 1.0625 C6.4783226 4.01914519 6.06032783 6.80479737 6 10.0625 C2.5262239 10.9511404 0.64406224 11.34708564 -2.6875 9.875 C-4.96534946 8.08965853 -6.49116578 6.52428215 -8 4.0625 C-8 3.4025 -8 2.7425 -8 2.0625 C-7.01 2.0625 -6.02 2.0625 -5 2.0625 C-5 1.4025 -5 0.7425 -5 0.0625 C-3 -0.9375 -3 -0.9375 0 0 Z " fill="#057FC2" transform="translate(292,185.9375)"/>
<path d="M0 0 C0.33 0 0.66 0 1 0 C1 6.6 1 13.2 1 20 C3.60132813 19.97679687 6.20265625 19.95359375 8.8828125 19.9296875 C11.41470858 19.91407002 13.94659921 19.90193722 16.47851562 19.89013672 C18.23212097 19.88010687 19.9857097 19.86647971 21.73925781 19.84912109 C24.26631785 19.8247397 26.7931559 19.8134866 29.3203125 19.8046875 C30.09867462 19.79436493 30.87703674 19.78404236 31.6789856 19.77340698 C37.77625837 19.77216283 42.59863714 21.09157384 48 24 C47.2479126 23.9270874 46.4958252 23.8541748 45.72094727 23.77905273 C36.07722623 22.93082683 26.4995659 22.94235585 16.83227539 23.09594727 C14.79312298 23.12611294 12.75414746 23.14387662 10.71484375 23.16015625 C8.92228149 23.18541382 8.92228149 23.18541382 7.09350586 23.21118164 C4 23 4 23 0 21 C0 14.07 0 7.14 0 0 Z " fill="#368DBC" transform="translate(286,217)"/>
<path d="M0 0 C0.66 0 1.32 0 2 0 C1.89042969 0.64582031 1.78085937 1.29164062 1.66796875 1.95703125 C0.84113914 6.87095359 0.02880228 11.78609719 -0.73046875 16.7109375 C-0.85768311 17.53231201 -0.98489746 18.35368652 -1.1159668 19.19995117 C-1.3660002 20.81952547 -1.61368087 22.4394653 -1.85864258 24.05981445 C-2.44780904 27.86682838 -3.12724426 31.58844808 -4.0546875 35.328125 C-5.32338074 40.8638565 -5.45362234 46.40346678 -5.625 52.0625 C-5.66367187 53.11888672 -5.70234375 54.17527344 -5.7421875 55.26367188 C-5.83553093 57.84228408 -5.92131253 60.42090608 -6 63 C-6.33 63 -6.66 63 -7 63 C-7 52.44 -7 41.88 -7 31 C-6.34 31 -5.68 31 -5 31 C-5 28.03 -5 25.06 -5 22 C-4.34 22 -3.68 22 -3 22 C-2.97291433 20.39592672 -2.95356517 18.7917215 -2.9375 17.1875 C-2.92589844 16.29417969 -2.91429687 15.40085938 -2.90234375 14.48046875 C-2.88990033 11.86586209 -2.88990033 11.86586209 -4 9 C-3.67 8.01 -3.34 7.02 -3 6 C-2.34 6 -1.68 6 -1 6 C-0.67 4.02 -0.34 2.04 0 0 Z " fill="#5DABD1" transform="translate(406,118)"/>
<path d="M0 0 C3.63 0 7.26 0 11 0 C10.34 1.65 9.68 3.3 9 5 C8.34 5 7.68 5 7 5 C7 6.32 7 7.64 7 9 C6.34 9 5.68 9 5 9 C4.34 10.98 3.68 12.96 3 15 C2.71125 14.401875 2.4225 13.80375 2.125 13.1875 C0.95257974 10.80672208 0.95257974 10.80672208 -1 8 C-1.99 8.33 -2.98 8.66 -4 9 C-2.79310745 5.89656201 -1.49403054 2.98806107 0 0 Z " fill="#5A5879" transform="translate(464,266)"/>
<path d="M0 0 C1.41750563 0.11509661 2.83401169 0.24253658 4.25 0.375 C5.03890625 0.44460937 5.8278125 0.51421875 6.640625 0.5859375 C9.085877 1.01507113 10.84836903 1.78600638 13 3 C12.75 6.375 12.75 6.375 12 10 C7.31274245 13.4265469 1.39014787 11.70362409 -4 11 C-7.68305783 10.40768236 -11.3441226 9.74125073 -15 9 C-15 8.67 -15 8.34 -15 8 C-12.89590361 7.97298592 -10.79170822 7.95359777 -8.6875 7.9375 C-7.51574219 7.92589844 -6.34398437 7.91429687 -5.13671875 7.90234375 C-2 8 -2 8 1 9 C2.39439664 9.06665376 3.79169875 9.08538199 5.1875 9.0625 C6.445625 9.041875 7.70375 9.02125 9 9 C9 8.34 9 7.68 9 7 C8.01 7.33 7.02 7.66 6 8 C5.7525 7.21625 5.505 6.4325 5.25 5.625 C3.84610901 2.67682892 2.99324263 2.0975223 0 1 C0 0.67 0 0.34 0 0 Z " fill="#3593C7" transform="translate(378,227)"/>
<path d="M0 0 C0 4.95 0 9.9 0 15 C-0.66 15 -1.32 15 -2 15 C-2.474375 15.495 -2.94875 15.99 -3.4375 16.5 C-5 18 -5 18 -8 18 C-8.66 17.67 -9.32 17.34 -10 17 C-10 16.01 -10 15.02 -10 14 C-9.34 14 -8.68 14 -8 14 C-8 13.34 -8 12.68 -8 12 C-7.01 11.34 -6.02 10.68 -5 10 C-5.37125 9.4225 -5.7425 8.845 -6.125 8.25 C-7 6 -7 6 -6.3125 3.875 C-4.60073157 1.42961653 -3.08607813 0 0 0 Z " fill="#46436A" transform="translate(255,281)"/>
<path d="M0 0 C0.99 0.33 1.98 0.66 3 1 C2.01 1.66 1.02 2.32 0 3 C1.19077148 2.99476318 2.38154297 2.98952637 3.60839844 2.98413086 C8.0289637 2.96602212 12.44952569 2.95454647 16.87011719 2.94506836 C18.78288321 2.94004159 20.6956454 2.93321923 22.60839844 2.92456055 C25.3587336 2.91242252 28.10901793 2.9067551 30.859375 2.90234375 C31.71368103 2.89718246 32.56798706 2.89202118 33.44818115 2.88670349 C34.64897308 2.88659019 34.64897308 2.88659019 35.87402344 2.88647461 C36.57573669 2.884254 37.27744995 2.88203339 38.00042725 2.87974548 C40.10595088 3.0063719 41.97407628 3.42679979 44 4 C44.75 6.75 44.75 6.75 45 10 C43.4375 12.375 43.4375 12.375 41 14 C37.75 14.25 37.75 14.25 35 14 C35 13.67 35 13.34 35 13 C36.65 13 38.3 13 40 13 C40 12.01 40 11.02 40 10 C40.99 10 41.98 10 43 10 C43 8.35 43 6.7 43 5 C28.15 5 13.3 5 -2 5 C-2 3.68 -2 2.36 -2 1 C-1.34 0.67 -0.68 0.34 0 0 Z " fill="#5CA4CB" transform="translate(347,197)"/>
<path d="M0 0 C0.66 0 1.32 0 2 0 C2 0.66 2 1.32 2 2 C3.98 2 5.96 2 8 2 C8 1.34 8 0.68 8 0 C8.99 0.33 9.98 0.66 11 1 C10.34 3.97 9.68 6.94 9 10 C6.03 10 3.06 10 0 10 C-1.49106457 7.01787087 -1.11941467 4.28390342 -1 1 C-0.67 0.67 -0.34 0.34 0 0 Z " fill="#2187C4" transform="translate(315,320)"/>
<path d="M0 0 C-0.66 0.66 -1.32 1.32 -2 2 C-2.495 2.680625 -2.99 3.36125 -3.5 4.0625 C-5 6 -5 6 -7 7 C-8.99960012 7.039992 -11.00047242 7.04346799 -13 7 C-13.38218767 5.34385343 -13.71395102 3.67542976 -14 2 C-13.67 1.67 -13.34 1.34 -13 1 C-14.65 1 -16.3 1 -18 1 C-17 -1 -17 -1 -15.4375 -1.625 C-9.82401738 -2.48861271 -5.12352553 -2.56176277 0 0 Z " fill="#6C698A" transform="translate(188,277)"/>
<path d="M0 0 C4.11818247 1.2639966 5.45043414 3.12926546 8.03125 6.53125 C8.81242187 7.54316406 9.59359375 8.55507812 10.3984375 9.59765625 C10.97851562 10.38011719 11.55859375 11.16257813 12.15625 11.96875 C8.40625 13.09375 8.40625 13.09375 6.15625 11.96875 C6.15625 10.64875 6.15625 9.32875 6.15625 7.96875 C5.16625 8.29875 4.17625 8.62875 3.15625 8.96875 C2.82625 7.31875 2.49625 5.66875 2.15625 3.96875 C0.50625 3.63875 -1.14375 3.30875 -2.84375 2.96875 C-2.51375 6.59875 -2.18375 10.22875 -1.84375 13.96875 C-4.516086 10.40563534 -5.61638971 8.12289253 -6.84375 3.96875 C-3.68495172 -0.04049397 -3.68495172 -0.04049397 0 0 Z " fill="#5AA5C9" transform="translate(347.84375,121.03125)"/>
<path d="M0 0 C1.42662219 2.85324437 1.31033868 4.83454549 1 8 C-1.58176478 12.26984176 -4.46945935 14.04363017 -9 16 C-9 14.68 -9 13.36 -9 12 C-7.35 12 -5.7 12 -4 12 C-4.33 10.35 -4.66 8.7 -5 7 C-4.01 6.67 -3.02 6.34 -2 6 C-5.3 5.34 -8.6 4.68 -12 4 C-7.22053425 0.41540069 -5.80588017 -0.12621479 0 0 Z " fill="#3793C5" transform="translate(359,181)"/>
<path d="M0 0 C0.61875 0.165 1.2375 0.33 1.875 0.5 C4.16786836 1.23577017 4.16786836 1.23577017 7 0 C8.60725635 3.21451269 8.05748185 6.43612536 8 10 C7.21625 9.979375 6.4325 9.95875 5.625 9.9375 C3.01885039 9.81315937 3.01885039 9.81315937 1 11 C0.34 10.67 -0.32 10.34 -1 10 C-1.02689216 8.52093108 -1.04634621 7.04172517 -1.0625 5.5625 C-1.07410156 4.73878906 -1.08570313 3.91507812 -1.09765625 3.06640625 C-1 1 -1 1 0 0 Z " fill="#6FABD1" transform="translate(220,320)"/>
<path d="M0 0 C1.16207966 2.32415932 1.10094064 3.58808835 1.0534668 6.17089844 C1.0398259 7.03229431 1.026185 7.89369019 1.01213074 8.78118896 C0.99136978 9.71449036 0.97060883 10.64779175 0.94921875 11.609375 C0.9303511 12.56894104 0.91148346 13.52850708 0.89204407 14.51715088 C0.85011118 16.55153108 0.80536879 18.58585498 0.75805664 20.62011719 C0.68810428 23.72319439 0.63361051 26.82628918 0.58007812 29.9296875 C0.53740732 31.90627071 0.49381705 33.88283434 0.44921875 35.859375 C0.43453049 36.78457947 0.41984222 37.70978394 0.40470886 38.6630249 C0.23418061 45.11581105 -0.91324367 50.26745252 -4 56 C-4.09725777 51.22677104 -3.75095188 46.78852281 -3 42.078125 C-1.80892025 33.94103793 -1.83492721 25.95451047 -2 17.75 C-2.05332852 15.01564377 -2.09305222 12.28155428 -2.125 9.546875 C-2.14820313 8.35932617 -2.17140625 7.17177734 -2.1953125 5.94824219 C-2 3 -2 3 0 0 Z " fill="#6FB0D8" transform="translate(241,123)"/>
<path d="M0 0 C1.33599921 0.32248257 2.66893378 0.65772583 4 1 C5.32 1 6.64 1 8 1 C8.09765625 7.15234375 8.09765625 7.15234375 8 9 C7 10 7 10 4.0625 10.1875 C1 10 1 10 -1 8 C-1.1875 4.4375 -1.1875 4.4375 -1 1 C-0.67 0.67 -0.34 0.34 0 0 Z " fill="#3C94C5" transform="translate(366,320)"/>
<path d="M0 0 C1.32 0 2.64 0 4 0 C4.75741925 9.02140429 5.13534286 17.94706663 5 27 C4.67 27 4.34 27 4 27 C3.34 21.39 2.68 15.78 2 10 C1.95101563 11.42054688 1.90203125 12.84109375 1.8515625 14.3046875 C1.77654064 16.16147856 1.70099256 18.01824841 1.625 19.875 C1.5940625 20.81214844 1.563125 21.74929687 1.53125 22.71484375 C1.49257813 23.61074219 1.45390625 24.50664062 1.4140625 25.4296875 C1.3826416 26.25710449 1.3512207 27.08452148 1.31884766 27.93701172 C1 30 1 30 -1 32 C-0.67 21.44 -0.34 10.88 0 0 Z " fill="#439AC5" transform="translate(265,198)"/>
<path d="M0 0 C2.36280927 2.14800843 3.58340234 4.16680467 5 7 C5.66 7.33 6.32 7.66 7 8 C7 8.66 7 9.32 7 10 C5.02 10.33 3.04 10.66 1 11 C1 12.65 1 14.3 1 16 C-1.60608273 13.4837822 -3.89381685 10.94865641 -6 8 C-5 6 -5 6 -3 5 C-3 5.66 -3 6.32 -3 7 C-2.34 7 -1.68 7 -1 7 C-0.67 4.69 -0.34 2.38 0 0 Z " fill="#615F81" transform="translate(383,279)"/>
<path d="M0 0 C1.4540625 0.0309375 1.4540625 0.0309375 2.9375 0.0625 C3.71592938 3.46812852 4.03728121 6.57015756 3.9375 10.0625 C1.2975 10.0625 -1.3425 10.0625 -4.0625 10.0625 C-4.08939216 8.58343108 -4.10884621 7.10422517 -4.125 5.625 C-4.13660156 4.80128906 -4.14820313 3.97757812 -4.16015625 3.12890625 C-4.00103255 -0.23815127 -3.43619093 0.07012635 0 0 Z " fill="#3495CD" transform="translate(412.0625,319.9375)"/>
<path d="M0 0 C3.29714793 0.32971479 4.6226839 0.6226839 7 3 C6.625 6.625 6.625 6.625 6 10 C3.66705225 10.04241723 1.33297433 10.04092937 -1 10 C-2 9 -2 9 -2.1875 5.5625 C-2 2 -2 2 0 0 Z " fill="#2F8CC3" transform="translate(437,320)"/>
<path d="M0 0 C2.9375 0.25 2.9375 0.25 6 1 C8 4 8 4 7.6875 6.625 C7 9 7 9 6 10 C3.66702567 10.04092937 1.33294775 10.04241723 -1 10 C-1.02689216 8.52093108 -1.04634621 7.04172517 -1.0625 5.5625 C-1.07410156 4.73878906 -1.08570313 3.91507812 -1.09765625 3.06640625 C-1 1 -1 1 0 0 Z " fill="#76B6DD" transform="translate(235,320)"/>
<path d="M0 0 C0.99 0.66 1.98 1.32 3 2 C2.67 2.99 2.34 3.98 2 5 C2.33 5.66 2.66 6.32 3 7 C7.16224452 7.10041428 7.16224452 7.10041428 11.25 6.4375 C13 6 13 6 15 7 C13.07329053 9.01047945 11.58556551 9.93759515 8.80078125 10.234375 C2.54928458 10.27464229 2.54928458 10.27464229 0 9 C0 12.96 0 16.92 0 21 C-2.97 21 -5.94 21 -9 21 C-9 20.67 -9 20.34 -9 20 C-6.36 20 -3.72 20 -1 20 C-1.0721875 19.25234375 -1.144375 18.5046875 -1.21875 17.734375 C-1.3115625 16.74953125 -1.404375 15.7646875 -1.5 14.75 C-1.5928125 13.77546875 -1.685625 12.8009375 -1.78125 11.796875 C-2.13897224 7.22314065 -1.85285427 4.1689221 0 0 Z " fill="#7C7A99" transform="translate(206,293)"/>
<path d="M0 0 C0.66 0 1.32 0 2 0 C2 1.32 2 2.64 2 4 C4.31 4 6.62 4 9 4 C9.33 3.01 9.66 2.02 10 1 C11.32 2.65 12.64 4.3 14 6 C13.67 6.66 13.34 7.32 13 8 C12.34 7.67 11.68 7.34 11 7 C10.67 7.99 10.34 8.98 10 10 C9.34 10.66 8.68 11.32 8 12 C8.3185177 14.10820797 8.3185177 14.10820797 9 16 C0 5.33333333 0 5.33333333 0 0 Z " fill="#6A6787" transform="translate(444,267)"/>
<path d="M0 0 C0.66 0.99 1.32 1.98 2 3 C-1.04586545 4.52293273 -4.28281155 4.35889973 -7.6328125 4.53515625 C-8.38464813 4.57813339 -9.13648376 4.62111053 -9.91110229 4.66539001 C-12.3155236 4.80188248 -14.72023271 4.93225976 -17.125 5.0625 C-18.75392886 5.15389472 -20.3828355 5.2456866 -22.01171875 5.33789062 C-26.007569 5.5632053 -30.003688 5.78303569 -34 6 C-34.66 8.64 -35.32 11.28 -36 14 C-36.33 14 -36.66 14 -37 14 C-37.16702456 9.65736138 -37.12999997 6.79039366 -35 3 C-33.67609253 2.970271 -33.67609253 2.970271 -32.32543945 2.93994141 C-29.03578043 2.86162134 -25.74656036 2.77492145 -22.45727539 2.68261719 C-21.0364627 2.64444851 -19.61555737 2.60957487 -18.19458008 2.578125 C-16.14631145 2.53220935 -14.09867392 2.47426195 -12.05078125 2.4140625 C-10.82012939 2.3826416 -9.58947754 2.3512207 -8.3215332 2.31884766 C-5.14635945 2.01404965 -2.86573943 1.35557799 0 0 Z " fill="#358EBC" transform="translate(322,200)"/>
<path d="M0 0 C4.875 1.875 4.875 1.875 6 3 C6.1875 5.4375 6.1875 5.4375 6 8 C4 10 4 10 1 10.3125 C0.01 10.209375 -0.98 10.10625 -2 10 C-4 7 -4 7 -3.8125 5 C-2.90059285 2.75530549 -1.81466246 1.57796735 0 0 Z " fill="#4396C4" transform="translate(302,320)"/>
<path d="M0 0 C5.71428571 0.71428571 5.71428571 0.71428571 7 2 C7.14115161 4.67058851 7.04247107 7.32432238 7 10 C4.36 10 1.72 10 -1 10 C-1.02689216 8.52093108 -1.04634621 7.04172517 -1.0625 5.5625 C-1.07410156 4.73878906 -1.08570313 3.91507812 -1.09765625 3.06640625 C-1 1 -1 1 0 0 Z " fill="#71B3D7" transform="translate(285,320)"/>
<path d="M0 0 C2.33944736 0.28730055 4.6739143 0.61936779 7 1 C7 3.97 7 6.94 7 10 C4.36 10 1.72 10 -1 10 C-1.02689216 8.52093108 -1.04634621 7.04172517 -1.0625 5.5625 C-1.07410156 4.73878906 -1.08570313 3.91507812 -1.09765625 3.06640625 C-1 1 -1 1 0 0 Z " fill="#90C0DE" transform="translate(423,320)"/>
<path d="M0 0 C0.86625 0.3403125 0.86625 0.3403125 1.75 0.6875 C2.62890625 6.83984375 2.62890625 6.83984375 2.75 8.6875 C1.75 9.6875 1.75 9.6875 -1.1875 9.875 C-4.25 9.6875 -4.25 9.6875 -6.25 7.6875 C-6.625 5.25 -6.625 5.25 -6.25 2.6875 C-4.11319077 0.39806154 -3.15626895 -0.43837069 0 0 Z " fill="#78B1CF" transform="translate(275.25,320.3125)"/>
<path d="M0 0 C0.55945313 0.12117188 1.11890625 0.24234375 1.6953125 0.3671875 C6.77916227 1.42972845 11.85436492 2.29064549 17 3 C22.7198894 3.78851867 28.35762012 4.77791772 34 6 C34 6.66 34 7.32 34 8 C27.71687298 8.19946435 22.04155282 7.84752843 16 6 C15.67 5.67 15.34 5.34 15 5 C13.19188816 4.79103683 11.37783968 4.63219639 9.5625 4.5 C4.21984733 4.10992366 4.21984733 4.10992366 2 3 C2 2.34 2 1.68 2 1 C1.34 0.67 0.68 0.34 0 0 Z " fill="#58A6CC" transform="translate(284,73)"/>
<path d="M0 0 C1.42336877 2.84673755 1.00758837 5.14615347 0.87890625 8.3203125 C0.83056641 9.57714844 0.78222656 10.83398438 0.73242188 12.12890625 C0.67634766 13.44761719 0.62027344 14.76632812 0.5625 16.125 C0.50927587 17.46482438 0.45653549 18.80466808 0.40429688 20.14453125 C0.27429992 23.42990887 0.13932314 26.71500678 0 30 C-2.31 30 -4.62 30 -7 30 C-7 28.68 -7 27.36 -7 26 C-5.68 26 -4.36 26 -3 26 C-1.68001461 19.54673807 -0.99174278 11.01651444 -4 5 C-3.34 4.34 -2.68 3.68 -2 3 C-1.34 2.01 -0.68 1.02 0 0 Z " fill="#3F3C5C" transform="translate(435,272)"/>
<path d="M0 0 C0.86625 0.3403125 0.86625 0.3403125 1.75 0.6875 C2.59181413 3.84430299 2.75 6.41322803 2.75 9.6875 C-0.625 9.8125 -0.625 9.8125 -4.25 9.6875 C-6.25 7.6875 -6.25 7.6875 -6.625 5.25 C-6.25 2.6875 -6.25 2.6875 -4.5 0.8125 C-2.25 -0.3125 -2.25 -0.3125 0 0 Z " fill="#8DBED9" transform="translate(400.25,320.3125)"/>
<path d="M0 0 C1.125 1.625 1.125 1.625 2 4 C1.125 7.125 1.125 7.125 0 10 C0 10.66 0 11.32 0 12 C0.99 12.66 1.98 13.32 3 14 C3 14.66 3 15.32 3 16 C-1.86954788 14.60870061 -4.16340273 12.13332746 -7 8 C-7.3125 5.125 -7.3125 5.125 -7 3 C-5.33388095 2.957279 -3.66617115 2.95936168 -2 3 C-1.67 3.33 -1.34 3.66 -1 4 C-0.67 2.68 -0.34 1.36 0 0 Z " fill="#656281" transform="translate(172,287)"/>
<path d="M0 0 C0.598125 0.20625 1.19625 0.4125 1.8125 0.625 C2.92094919 3.95034757 2.65704356 6.24682575 1.8125 9.625 C-1.0625 9.75 -1.0625 9.75 -4.1875 9.625 C-4.8475 8.965 -5.5075 8.305 -6.1875 7.625 C-6 4.625 -6 4.625 -5.1875 1.625 C-2.1875 -0.375 -2.1875 -0.375 0 0 Z " fill="#57A3CE" transform="translate(386.1875,320.375)"/>
<path d="M0 0 C0 2.97 0 5.94 0 9 C-2.31 9 -4.62 9 -7 9 C-7.78260048 6.18263828 -8.19511109 4.54030762 -7.1875 1.75 C-4.91312727 -1.60170718 -4.02772619 -1.00693155 0 0 Z " fill="#4C9DCC" transform="translate(359,321)"/>
<path d="M0 0 C17.33606557 -0.33196721 17.33606557 -0.33196721 22 2 C22 2.66 22 3.32 22 4 C23.32 4.33 24.64 4.66 26 5 C17.42 5 8.84 5 0 5 C0 4.67 0 4.34 0 4 C5.445 3.505 5.445 3.505 11 3 C7.37 2.34 3.74 1.68 0 1 C0 0.67 0 0.34 0 0 Z " fill="#77C2DE" transform="translate(254,90)"/>
<path d="M0 0 C7.4422658 -0.36601307 7.4422658 -0.36601307 10 1.3125 C11 3 11 3 11 6 C8 8 8 8 5.73828125 7.7578125 C4.93777344 7.54898437 4.13726562 7.34015625 3.3125 7.125 C2.50425781 6.92132813 1.69601562 6.71765625 0.86328125 6.5078125 C0.24839844 6.34023438 -0.36648438 6.17265625 -1 6 C-1 5.34 -1 4.68 -1 4 C-0.34 3.67 0.32 3.34 1 3 C0.67 2.01 0.34 1.02 0 0 Z " fill="#4F4F70" transform="translate(273,276)"/>
<path d="M0 0 C0.66 0 1.32 0 2 0 C4 2 4 2 5 5 C4.54451823 7.73812607 3.74685247 10.3201176 3 13 C1.35 12.67 -0.3 12.34 -2 12 C-2 8.7 -2 5.4 -2 2 C-1.34 2 -0.68 2 0 2 C0 1.34 0 0.68 0 0 Z " fill="#017FC6" transform="translate(273,213)"/>
<path d="M0 0 C5.61 0 11.22 0 17 0 C17 4.13351845 15.60523868 5.84629002 13 9 C9.75 9.875 9.75 9.875 7 10 C7 10.66 7 11.32 7 12 C6.01 12.495 6.01 12.495 5 13 C4.27306096 14.97888961 3.60183749 16.97954558 3 19 C2.67 19 2.34 19 2 19 C1.47956914 13.63497013 1.47956914 13.63497013 3.828125 10.76953125 C5.02695312 9.80080078 5.02695312 9.80080078 6.25 8.8125 C7.43335938 7.83216797 7.43335938 7.83216797 8.640625 6.83203125 C10.74342246 5.19922991 12.8701666 3.59737505 15 2 C10.05 1.67 5.1 1.34 0 1 C0 0.67 0 0.34 0 0 Z " fill="#7ABEDB" transform="translate(280,117)"/>
<path d="M0 0 C-2.35358251 2.35358251 -2.92968394 2.27871904 -6.1328125 2.4140625 C-7.34130859 2.47207031 -7.34130859 2.47207031 -8.57421875 2.53125 C-9.83685547 2.57765625 -9.83685547 2.57765625 -11.125 2.625 C-12.39923828 2.68300781 -12.39923828 2.68300781 -13.69921875 2.7421875 C-15.79911684 2.83656494 -17.89952891 2.91937586 -20 3 C-20.74957157 6.47147842 -20.74957157 6.47147842 -21 10 C-16.05 10.33 -11.1 10.66 -6 11 C-6 11.33 -6 11.66 -6 12 C-8.24973447 12.054138 -10.49984383 12.09285491 -12.75 12.125 C-14.00296875 12.14820312 -15.2559375 12.17140625 -16.546875 12.1953125 C-19.74032429 12.01468754 -21.40271289 11.78405886 -24 10 C-25 8.1875 -25 8.1875 -25 6 C-23.42578125 3.4140625 -23.42578125 3.4140625 -21 1 C-17.79296875 0.29296875 -17.79296875 0.29296875 -14.1875 0.1875 C-13.00542969 0.13980469 -11.82335937 0.09210938 -10.60546875 0.04296875 C-7.06983542 0.00083227 -3.53584675 -0.013582 0 0 Z " fill="#5BA3C8" transform="translate(275,107)"/>
<path d="M0 0 C1.53202706 0.25195908 3.05257128 0.57596777 4.5625 0.9375 C5.38878906 1.13214844 6.21507812 1.32679688 7.06640625 1.52734375 C8.02353516 1.76130859 8.02353516 1.76130859 9 2 C9 3.98 9 5.96 9 8 C6.03 8 3.06 8 0 8 C-0.38063221 5.6739143 -0.71269945 3.33944736 -1 1 C-0.67 0.67 -0.34 0.34 0 0 Z " fill="#48456B" transform="translate(315,294)"/>
<path d="M0 0 C5.43806647 -0.36253776 5.43806647 -0.36253776 7.9375 1.25 C8.288125 1.8275 8.63875 2.405 9 3 C8.67 4.32 8.34 5.64 8 7 C4.37 7 0.74 7 -3 7 C-3 6.34 -3 5.68 -3 5 C-2.34 5 -1.68 5 -1 5 C-0.67 3.35 -0.34 1.7 0 0 Z " fill="#444368" transform="translate(342,295)"/>
<path d="M0 0 C0.33 0 0.66 0 1 0 C1.02687279 1.81242052 1.04633715 3.62495233 1.0625 5.4375 C1.07410156 6.44683594 1.08570313 7.45617187 1.09765625 8.49609375 C1 11 1 11 0 12 C-0.23481693 14.18292774 -0.41363323 16.37203174 -0.5625 18.5625 C-0.68818359 20.35880859 -0.68818359 20.35880859 -0.81640625 22.19140625 C-0.87699219 23.11824219 -0.93757812 24.04507813 -1 25 C-0.01 25.66 0.98 26.32 2 27 C-0.375 26.6875 -0.375 26.6875 -3 26 C-5 23 -5 23 -4.75390625 20.3671875 C-3.83883675 16.28019315 -2.91426465 12.19772894 -1.9375 8.125 C-1.75123047 7.34125 -1.56496094 6.5575 -1.37304688 5.75 C-0.91715285 3.83290719 -0.45882473 1.9163935 0 0 Z " fill="#3794C4" transform="translate(234,190)"/>
<path d="M0 0 C1.485 0.99 1.485 0.99 3 2 C3.29296875 4.3828125 3.29296875 4.3828125 3.1875 7.125 C3.16042969 8.03507812 3.13335937 8.94515625 3.10546875 9.8828125 C3.07066406 10.58148438 3.03585937 11.28015625 3 12 C3.33 12 3.66 12 4 12 C4 16.29 4 20.58 4 25 C3.01 24.67 2.02 24.34 1 24 C0.01956036 21.05868109 -0.11621202 19.17498335 -0.09765625 16.11328125 C-0.09443359 15.17548828 -0.09121094 14.23769531 -0.08789062 13.27148438 C-0.07532227 11.80678711 -0.07532227 11.80678711 -0.0625 10.3125 C-0.05798828 9.32443359 -0.05347656 8.33636719 -0.04882812 7.31835938 C-0.03704303 4.87884526 -0.02059011 2.43945311 0 0 Z " fill="#63B4D8" transform="translate(371,95)"/>
<path d="M0 0 C2.87526069 0.1416533 5.75013536 0.28818532 8.625 0.4375 C9.43324219 0.47681641 10.24148438 0.51613281 11.07421875 0.55664062 C15.45150865 0.78796082 19.68547281 1.16920917 24 2 C24 2.99 24 3.98 24 5 C20.56294295 5.14505175 17.12666967 5.23398014 13.6875 5.3125 C12.71103516 5.35439453 11.73457031 5.39628906 10.72851562 5.43945312 C8.06206134 5.48526849 5.62286143 5.4882833 3 5 C0.83203125 2.48046875 0.83203125 2.48046875 0 0 Z " fill="#429CCE" transform="translate(261,81)"/>
<path d="M0 0 C3.04386724 -0.08226668 5.07175348 0.02391783 8 1 C8.33 1.99 8.66 2.98 9 4 C9.99 4.66 10.98 5.32 12 6 C11.34 6.66 10.68 7.32 10 8 C8.68 8 7.36 8 6 8 C5.67 8.99 5.34 9.98 5 11 C4.67 9.35 4.34 7.7 4 6 C2.02 6.99 2.02 6.99 0 8 C0 5.36 0 2.72 0 0 Z M5 4 C5 4.66 5 5.32 5 6 C5.66 5.67 6.32 5.34 7 5 C6.34 4.67 5.68 4.34 5 4 Z M8 5 C9 7 9 7 9 7 Z " fill="#434263" transform="translate(229,276)"/>
<path d="M0 0 C2.64 0 5.28 0 8 0 C8.38218767 1.65614657 8.71395102 3.32457024 9 5 C8 6 8 6 5.71484375 6.09765625 C4.34005859 6.08025391 4.34005859 6.08025391 2.9375 6.0625 C2.01839844 6.05347656 1.09929687 6.04445313 0.15234375 6.03515625 C-0.55792969 6.02355469 -1.26820313 6.01195312 -2 6 C-2 4.68 -2 3.36 -2 2 C-1.34 2 -0.68 2 0 2 C0 1.34 0 0.68 0 0 Z " fill="#464369" transform="translate(269,296)"/>
<path d="M0 0 C0.66 0 1.32 0 2 0 C2.01981934 0.78648926 2.03963867 1.57297852 2.06005859 2.38330078 C2.15561233 5.96419042 2.26516936 9.54452098 2.375 13.125 C2.42140625 14.98125 2.42140625 14.98125 2.46875 16.875 C2.50742187 18.07382813 2.54609375 19.27265625 2.5859375 20.5078125 C2.6173584 21.60754395 2.6487793 22.70727539 2.68115234 23.84033203 C3.01436543 27.14235634 3.83646571 29.90132447 5 33 C6.65 33 8.3 33 10 33 C9.34 33.66 8.68 34.32 8 35 C5.5 34.875 5.5 34.875 3 34 C0.59275997 30.54979593 0.69045227 27.15778933 0.5859375 23.046875 C0.56657135 22.38665344 0.5472052 21.72643188 0.5272522 21.04620361 C0.46770651 18.94759847 0.42117278 16.84893772 0.375 14.75 C0.33679706 13.3228934 0.29774398 11.89580928 0.2578125 10.46875 C0.1620267 6.97937309 0.07790358 3.48982714 0 0 Z " fill="#509EC6" transform="translate(254,197)"/>
<path d="M0 0 C1.66611905 -0.042721 3.33382885 -0.04063832 5 0 C6 1 6 1 6.0625 4.0625 C6.041875 5.031875 6.02125 6.00125 6 7 C5.01 7.33 4.02 7.66 3 8 C3 8.66 3 9.32 3 10 C1.68 9.67 0.36 9.34 -1 9 C-1.125 2.25 -1.125 2.25 0 0 Z " fill="#5099C8" transform="translate(196,320)"/>
<path d="M0 0 C0.33 0 0.66 0 1 0 C1.0246501 5.10863896 1.04283607 10.21724359 1.05493164 15.32592773 C1.05997204 17.06519168 1.0668043 18.80445136 1.07543945 20.54370117 C1.08751792 23.03825937 1.09323108 25.53276173 1.09765625 28.02734375 C1.10281754 28.80963852 1.10797882 29.59193329 1.11329651 30.39793396 C1.11349226 32.26567114 1.06199694 34.13329204 1 36 C0 37 0 37 -2.06640625 37.09765625 C-2.89011719 37.08605469 -3.71382813 37.07445312 -4.5625 37.0625 C-5.38878906 37.05347656 -6.21507812 37.04445313 -7.06640625 37.03515625 C-7.70449219 37.02355469 -8.34257812 37.01195312 -9 37 C-8.67 36.01 -8.34 35.02 -8 34 C-5.69 34 -3.38 34 -1 34 C-0.67 22.78 -0.34 11.56 0 0 Z " fill="#B5B4B8" transform="translate(397,266)"/>
<path d="M0 0 C7.75 1.625 7.75 1.625 10 5 C9.625 7.6875 9.625 7.6875 9 10 C5.30458414 10.95024979 2.69541586 10.95024979 -1 10 C2.08809695 8.23537317 3.23312136 8 7 8 C6.67 7.01 6.34 6.02 6 5 C3.36 4.67 0.72 4.34 -2 4 C-1.34 3.67 -0.68 3.34 0 3 C0 2.01 0 1.02 0 0 Z " fill="#4B9BC7" transform="translate(370,239)"/>
<path d="M0 0 C0.33 0 0.66 0 1 0 C1.67842194 10.68514555 2.15498126 21.28907291 2 32 C1.67 32 1.34 32 1 32 C-0.3858529 24.77376702 -1.194224 17.7243363 -1.1875 10.375 C-1.18814453 9.68857422 -1.18878906 9.00214844 -1.18945312 8.29492188 C-1.15619554 5.26243496 -0.96615379 2.89846138 0 0 Z " fill="#2886B8" transform="translate(398,163)"/>
<path d="M0 0 C2.58142645 0.34884141 4.51100629 0.65088393 6.65234375 2.1796875 C8.56436541 4.76230227 8.32997866 6.63334815 8.25 9.8125 C8.22421875 10.87597656 8.1984375 11.93945312 8.171875 13.03515625 C7.99521476 16.08254544 7.66267238 19.0179743 7 22 C6.67 22 6.34 22 6 22 C5.67 16.39 5.34 10.78 5 5 C2.03 4.505 2.03 4.505 -1 4 C-0.67 2.68 -0.34 1.36 0 0 Z " fill="#5BA7CD" transform="translate(391,90)"/>
<path d="M0 0 C0.99 0.33 1.98 0.66 3 1 C3.73046875 3.06640625 3.73046875 3.06640625 4.1875 5.5625 C4.34605469 6.38878906 4.50460938 7.21507812 4.66796875 8.06640625 C4.77753906 8.70449219 4.88710937 9.34257812 5 10 C4.01 10.495 4.01 10.495 3 11 C2.67 11.66 2.34 12.32 2 13 C1.01 13.495 1.01 13.495 0 14 C-0.99 11.03 -1.98 8.06 -3 5 C-2.01 4.01 -1.02 3.02 0 2 C0 1.34 0 0.68 0 0 Z " fill="#525073" transform="translate(185,277)"/>
<path d="M0 0 C0.99 0 1.98 0 3 0 C3 0.66 3 1.32 3 2 C3.66 2 4.32 2 5 2 C5 2.66 5 3.32 5 4 C3.68 4 2.36 4 1 4 C1.165 4.721875 1.33 5.44375 1.5 6.1875 C1 9 1 9 -0.78125 10.4453125 C-2.82254045 11.70314992 -4.8769233 12.88633253 -7 14 C-8.0625 12.125 -8.0625 12.125 -9 10 C-8.67 9.34 -8.34 8.68 -8 8 C-6.35 8.33 -4.7 8.66 -3 9 C-2.67 8.34 -2.34 7.68 -2 7 C-2.33 6.01 -2.66 5.02 -3 4 C-2.34 4 -1.68 4 -1 4 C-0.67 2.68 -0.34 1.36 0 0 Z " fill="#0883C3" transform="translate(315,114)"/>
<path d="M0 0 C3 1 3 1 4 3 C3.34 3 2.68 3 2 3 C2.185625 4.093125 2.37125 5.18625 2.5625 6.3125 C3 10 3 10 2 13 C-0.97550031 9.9315153 -1.96474513 8.53763669 -2.25 4.1875 C-2.1675 3.135625 -2.085 2.08375 -2 1 C-1.34 0.67 -0.68 0.34 0 0 Z M3 4 C5 5 5 5 5 5 Z " fill="#494570" transform="translate(386,289)"/>
<path d="M0 0 C2.64 0.33 5.28 0.66 8 1 C8 1.33 8 1.66 8 2 C6.35 2 4.7 2 3 2 C3.33 2.99 3.66 3.98 4 5 C3.34 5 2.68 5 2 5 C2 5.66 2 6.32 2 7 C1.34 7 0.68 7 0 7 C0 7.66 0 8.32 0 9 C3.3 9 6.6 9 10 9 C10 9.33 10 9.66 10 10 C8.22950311 10.05410687 6.45853151 10.09284119 4.6875 10.125 C3.20830078 10.15980469 3.20830078 10.15980469 1.69921875 10.1953125 C-1 10 -1 10 -4 8 C-4 7.34 -4 6.68 -4 6 C-3 5 -2 4 -1 3 C-0.67 2.01 -0.34 1.02 0 0 Z " fill="#706F8A" transform="translate(339,293)"/>
<path d="M0 0 C1 2.4375 1 2.4375 1 5 C-0.3125 6.8125 -0.3125 6.8125 -2 8 C-2.66 8 -3.32 8 -4 8 C-4.33 5.69 -4.66 3.38 -5 1 C-6.32 1.33 -7.64 1.66 -9 2 C-9 1.01 -9 0.02 -9 -1 C-5.4161797 -2.32734085 -3.28196243 -1.95143712 0 0 Z " fill="#1889C8" transform="translate(395,216)"/>
<path d="M0 0 C2.5 0.875 2.5 0.875 3.8125 3.4375 C4.1528125 4.6440625 4.1528125 4.6440625 4.5 5.875 C3.3553125 6.0296875 3.3553125 6.0296875 2.1875 6.1875 C-0.69497655 6.92487772 -1.59539142 7.68470014 -3.5 9.875 C-3.83 9.875 -4.16 9.875 -4.5 9.875 C-4.625 5.125 -4.625 5.125 -3.5 2.875 C-3.83 2.215 -4.16 1.555 -4.5 0.875 C-2.5 -0.125 -2.5 -0.125 0 0 Z " fill="#0280C7" transform="translate(380.5,86.125)"/>
<path d="M0 0 C0.78375 0.165 1.5675 0.33 2.375 0.5 C5.9124162 1.17379356 8.49561161 0.73776598 12 0 C12 1.65 12 3.3 12 5 C8.7 5.33 5.4 5.66 2 6 C0 1.125 0 1.125 0 0 Z " fill="#46446C" transform="translate(207,295)"/>
<path d="M0 0 C2.31 0 4.62 0 7 0 C7 1.32 7 2.64 7 4 C4 3 4 3 2 2 C2.02320313 3.19238281 2.04640625 4.38476562 2.0703125 5.61328125 C2.08907178 7.17968124 2.10727181 8.746088 2.125 10.3125 C2.15013672 11.49102539 2.15013672 11.49102539 2.17578125 12.69335938 C2.18222656 13.45068359 2.18867188 14.20800781 2.1953125 14.98828125 C2.21102295 16.03302612 2.21102295 16.03302612 2.22705078 17.09887695 C2 19 2 19 0 22 C0 14.74 0 7.48 0 0 Z " fill="#454361" transform="translate(330,266)"/>
<path d="M0 0 C0.33 0 0.66 0 1 0 C1 10.89 1 21.78 1 33 C1.66 33 2.32 33 3 33 C3 33.99 3 34.98 3 36 C4.32 36.33 5.64 36.66 7 37 C4.69 37 2.38 37 0 37 C0 24.79 0 12.58 0 0 Z " fill="#A1A0AF" transform="translate(365,266)"/>
<path d="M0 0 C-10.89 -0.66 -21.78 -1.32 -33 -2 C-33 -2.33 -33 -2.66 -33 -3 C-9.71042945 -4.85521472 -9.71042945 -4.85521472 0 0 Z " fill="#70B2D5" transform="translate(334,241)"/>
<path d="M0 0 C0 0.33 0 0.66 0 1 C-1.65 1 -3.3 1 -5 1 C-5 3.64 -5 6.28 -5 9 C-6.32 9 -7.64 9 -9 9 C-10 5.125 -10 5.125 -10 4 C-10.99 4 -11.98 4 -13 4 C-12.67 3.01 -12.34 2.02 -12 1 C-11.34 1 -10.68 1 -10 1 C-6.52674819 -0.1577506 -3.63932552 -0.06866652 0 0 Z " fill="#787794" transform="translate(311,275)"/>
<path d="M0 0 C2.60513436 0.55116237 5.17435962 1.19576846 7.75390625 1.85546875 C10.08326702 2.24713118 12.41127622 2.54990831 14.75390625 2.85546875 C14.75390625 3.18546875 14.75390625 3.51546875 14.75390625 3.85546875 C9.28793824 3.95307532 4.16766078 3.60219351 -1.24609375 2.85546875 C-1.90609375 2.85546875 -2.56609375 2.85546875 -3.24609375 2.85546875 C-2.91609375 4.50546875 -2.58609375 6.15546875 -2.24609375 7.85546875 C-1.25609375 7.85546875 -0.26609375 7.85546875 0.75390625 7.85546875 C0.75390625 8.51546875 0.75390625 9.17546875 0.75390625 9.85546875 C-3.92301683 8.37854567 -3.92301683 8.37854567 -5.55859375 5.73046875 C-5.78546875 5.11171875 -6.01234375 4.49296875 -6.24609375 3.85546875 C-4.49726052 1.15272648 -3.33446117 -0.21456533 0 0 Z " fill="#69ACD0" transform="translate(268.24609375,69.14453125)"/>
<path d="M0 0 C2.125 2.6875 2.125 2.6875 3.125 4.6875 C2.465 4.6875 1.805 4.6875 1.125 4.6875 C1.125 5.3475 1.125 6.0075 1.125 6.6875 C-2.02430893 7.73726964 -4.26314456 7.78881595 -7.5625 7.75 C-8.55636719 7.74097656 -9.55023438 7.73195313 -10.57421875 7.72265625 C-11.71310547 7.70525391 -11.71310547 7.70525391 -12.875 7.6875 C-12.875 7.3575 -12.875 7.0275 -12.875 6.6875 C-9.575 6.3575 -6.275 6.0275 -2.875 5.6875 C-2.875 4.3675 -2.875 3.0475 -2.875 1.6875 C-5.515 1.3575 -8.155 1.0275 -10.875 0.6875 C-10.545 0.0275 -10.215 -0.6325 -9.875 -1.3125 C-5.37956669 -2.60925961 -3.73534799 -3.00451904 0 0 Z " fill="#7C7B94" transform="translate(279.875,295.3125)"/>
<path d="M0 0 C0.66 0 1.32 0 2 0 C2 0.66 2 1.32 2 2 C3.98 2 5.96 2 8 2 C8 1.34 8 0.68 8 0 C8.99 0.33 9.98 0.66 11 1 C10.67 2.98 10.34 4.96 10 7 C9.67 5.68 9.34 4.36 9 3 C6.69 3.33 4.38 3.66 2 4 C1.67 5.65 1.34 7.3 1 9 C2.32 9.33 3.64 9.66 5 10 C3.35 10 1.7 10 0 10 C-1.49106457 7.01787087 -1.11941467 4.28390342 -1 1 C-0.67 0.67 -0.34 0.34 0 0 Z " fill="#75AFCD" transform="translate(315,320)"/>
<path d="M0 0 C0.33 0 0.66 0 1 0 C1 1.98 1 3.96 1 6 C-9.89 6 -20.78 6 -32 6 C-31.67 5.34 -31.34 4.68 -31 4 C-29.10314453 4.01740234 -29.10314453 4.01740234 -27.16796875 4.03515625 C-25.50781398 4.04453566 -23.84765761 4.0536357 -22.1875 4.0625 C-21.35412109 4.07087891 -20.52074219 4.07925781 -19.66210938 4.08789062 C-18.45844727 4.09272461 -18.45844727 4.09272461 -17.23046875 4.09765625 C-16.49207764 4.10289307 -15.75368652 4.10812988 -14.99291992 4.11352539 C-12.78942591 4.07523213 -12.78942591 4.07523213 -10 3 C-10 3.66 -10 4.32 -10 5 C-6.7 5 -3.4 5 0 5 C0 3.35 0 1.7 0 0 Z " fill="#117CB6" transform="translate(398,189)"/>
<path d="M0 0 C2 2 2 2 2.1953125 4.1640625 C2.17210937 4.97617187 2.14890625 5.78828125 2.125 6.625 C2.10695313 7.44226563 2.08890625 8.25953125 2.0703125 9.1015625 C2.03550781 10.04128906 2.03550781 10.04128906 2 11 C0.02 11 -1.96 11 -4 11 C-4 10.01 -4 9.02 -4 8 C-3.34 8 -2.68 8 -2 8 C-2 7.34 -2 6.68 -2 6 C-2.66 6 -3.32 6 -4 6 C-3.67 5.34 -3.34 4.68 -3 4 C-2.01 4 -1.02 4 0 4 C0 2.68 0 1.36 0 0 Z " fill="#474468" transform="translate(460,291)"/>
<path d="M0 0 C1.32 0 2.64 0 4 0 C4 0.66 4 1.32 4 2 C3.01 2 2.02 2 1 2 C1 6.95 1 11.9 1 17 C0.34 17 -0.32 17 -1 17 C-1.22354607 15.10590022 -1.42819951 13.2095652 -1.625 11.3125 C-1.74101562 10.25675781 -1.85703125 9.20101562 -1.9765625 8.11328125 C-2.0010326 4.86283654 -1.40852563 2.89769204 0 0 Z " fill="#177EB6" transform="translate(276,180)"/>
<path d="M0 0 C0.99 0.99 1.98 1.98 3 3 C2.67 3.66 2.34 4.32 2 5 C0.35 5 -1.3 5 -3 5 C-2.67 5.99 -2.34 6.98 -2 8 C-2.66 8 -3.32 8 -4 8 C-4.33 8.99 -4.66 9.98 -5 11 C-5.37125 9.6078125 -5.37125 9.6078125 -5.75 8.1875 C-7.06454245 4.83541675 -7.97963384 3.8122197 -11 2 C-8.03 2.495 -8.03 2.495 -5 3 C-5 2.67 -5 2.34 -5 2 C-3.35 2 -1.7 2 0 2 C0 1.34 0 0.68 0 0 Z " fill="#737391" transform="translate(284,280)"/>
<path d="M0 0 C8.26747851 -0.23658921 15.92046224 0.18655665 24 2 C23.67 2.66 23.34 3.32 23 4 C15.21191437 3.48351265 7.65074958 2.55123466 0 1 C0 0.67 0 0.34 0 0 Z " fill="#60ACD1" transform="translate(363,235)"/>
<path d="M0 0 C0.66 0 1.32 0 2 0 C4.64 4.62 7.28 9.24 10 14 C9.01 14.33 8.02 14.66 7 15 C6.67 14.34 6.34 13.68 6 13 C5.01 13 4.02 13 3 13 C2.67 10.03 2.34 7.06 2 4 C1.01 3.67 0.02 3.34 -1 3 C-0.67 2.01 -0.34 1.02 0 0 Z " fill="#489AC9" transform="translate(281,162)"/>
<path d="M0 0 C0.99 0 1.98 0 3 0 C3 0.99 3 1.98 3 3 C3.66 3.33 4.32 3.66 5 4 C5 4.99 5 5.98 5 7 C5.66 7 6.32 7 7 7 C7.33 7.66 7.66 8.32 8 9 C8.66 9.33 9.32 9.66 10 10 C10.59355614 12.64860427 10.74209269 15.29197322 11 18 C7.47738502 15.65159001 6.74331701 13.90289851 4.9375 10.125 C4.43089844 9.07570312 3.92429687 8.02640625 3.40234375 6.9453125 C2.93957031 5.97335938 2.47679687 5.00140625 2 4 C1.33683748 2.66492034 0.67180471 1.33075191 0 0 Z " fill="#59A8CF" transform="translate(346,136)"/>
<path d="M0 0 C0.99 0 1.98 0 3 0 C3.33 1.32 3.66 2.64 4 4 C3.01 4 2.02 4 1 4 C1 11.26 1 18.52 1 26 C0.67 26 0.34 26 0 26 C-1.04865737 17.19127807 -0.84831606 8.82248707 0 0 Z " fill="#0A7DBB" transform="translate(264,194)"/>
<path d="M0 0 C2 2 2 2 2.125 5.625 C2.08375 6.73875 2.0425 7.8525 2 9 C-1.43878112 9.87968819 -3.36562983 10.2655503 -6.6875 8.875 C-9.22018113 6.82147476 -10.51884893 4.88434681 -12 2 C-11.34 2 -10.68 2 -10 2 C-10 2.66 -10 3.32 -10 4 C-6.37802806 5.49140021 -2.72433382 6.7874262 1 8 C0.67 5.36 0.34 2.72 0 0 Z " fill="#509ECA" transform="translate(296,187)"/>
<path d="M0 0 C0.66 0 1.32 0 2 0 C2.24052011 8.25785714 1.97699579 14.61415067 -2 22 C-2.10541952 16.93327435 -1.72702304 12.0681519 -1 7.0625 C-0.90460938 6.37865234 -0.80921875 5.69480469 -0.7109375 4.99023438 C-0.47820863 3.32622293 -0.23971452 1.66301947 0 0 Z " fill="#5DA8CB" transform="translate(239,157)"/>
<path d="M0 0 C1.65 0.33 3.3 0.66 5 1 C5 4.96 5 8.92 5 13 C4.01 13.495 4.01 13.495 3 14 C2.896875 12.783125 2.79375 11.56625 2.6875 10.3125 C2.23780688 6.58930552 1.21617222 4.08337005 -1 1 C-0.67 0.67 -0.34 0.34 0 0 Z " fill="#1A84BD" transform="translate(404,104)"/>
<path d="M0 0 C3.3 0 6.6 0 10 0 C10 1.65 10 3.3 10 5 C6.86650268 6.04449911 6.01031744 5.93423645 3 5 C3 3.68 3 2.36 3 1 C2.01 0.67 1.02 0.34 0 0 Z " fill="#474666" transform="translate(443,266)"/>
<path d="M0 0 C0.33 0 0.66 0 1 0 C1 6.6 1 13.2 1 20 C6.47825081 20.4472136 6.47825081 20.4472136 9 19 C8.67 19.99 8.34 20.98 8 22 C5.6875 22.625 5.6875 22.625 3 23 C2.01 22.34 1.02 21.68 0 21 C-0.34057617 18.84521484 -0.34057617 18.84521484 -0.29296875 16.2109375 C-0.2784668 14.79941406 -0.2784668 14.79941406 -0.26367188 13.359375 C-0.23853516 12.37453125 -0.21339844 11.3896875 -0.1875 10.375 C-0.17396484 9.38242188 -0.16042969 8.38984375 -0.14648438 7.3671875 C-0.11105743 4.91091928 -0.06166196 2.45572715 0 0 Z " fill="#69AFD1" transform="translate(242,205)"/>
<path d="M0 0 C0.33 0 0.66 0 1 0 C1 1.98 1 3.96 1 6 C0.01 6.33 -0.98 6.66 -2 7 C-2 9.97 -2 12.94 -2 16 C-2.66 16 -3.32 16 -4 16 C-4.18451025 6.58997722 -4.18451025 6.58997722 -3 2 C-2.01 2 -1.02 2 0 2 C0 1.34 0 0.68 0 0 Z " fill="#0F7EB7" transform="translate(247,196)"/>
<path d="M0 0 C0.66 0 1.32 0 2 0 C2 5.61 2 11.22 2 17 C-0.31 17 -2.62 17 -5 17 C-4 15 -4 15 -1 14 C-0.83287252 11.85420251 -0.66631 9.70836101 -0.5 7.5625 C-0.4071875 6.36753906 -0.314375 5.17257812 -0.21875 3.94140625 C-0.06058137 1.97251499 -0.06058137 1.97251499 0 0 Z " fill="#454361" transform="translate(297,285)"/>
<path d="M0 0 C3.29714793 0.32971479 4.6226839 0.6226839 7 3 C7.125 5.625 7.125 5.625 7 8 C5.35 7.67 3.7 7.34 2 7 C2.66 5.35 3.32 3.7 4 2 C2.68 2.33 1.36 2.66 0 3 C-0.33 4.98 -0.66 6.96 -1 9 C-1.33 9 -1.66 9 -2 9 C-2.125 5.625 -2.125 5.625 -2 2 C-1.34 1.34 -0.68 0.68 0 0 Z " fill="#80C1DB" transform="translate(437,320)"/>
<path d="M0 0 C0.66 0 1.32 0 2 0 C1.67 1.98 1.34 3.96 1 6 C0.34 6 -0.32 6 -1 6 C-1 6.66 -1 7.32 -1 8 C-2.32 8.33 -3.64 8.66 -5 9 C-5 6.69 -5 4.38 -5 2 C-3.68 2.33 -2.36 2.66 -1 3 C-0.67 2.01 -0.34 1.02 0 0 Z " fill="#338EC5" transform="translate(225,320)"/>
<path d="M0 0 C-0.66 2.31 -1.32 4.62 -2 7 C-3.65 7.33 -5.3 7.66 -7 8 C-7.33 6.68 -7.66 5.36 -8 4 C-2.25 0 -2.25 0 0 0 Z " fill="#1F88BC" transform="translate(240,208)"/>
<path d="M0 0 C1.21236328 0.01353516 1.21236328 0.01353516 2.44921875 0.02734375 C3.37154297 0.04474609 3.37154297 0.04474609 4.3125 0.0625 C2.9925 0.3925 1.6725 0.7225 0.3125 1.0625 C0.3125 1.7225 0.3125 2.3825 0.3125 3.0625 C0.9725 3.3925 1.6325 3.7225 2.3125 4.0625 C-2.4375 6.0625 -2.4375 6.0625 -4.6875 6.0625 C-4.3575 4.7425 -4.0275 3.4225 -3.6875 2.0625 C-5.0075 1.7325 -6.3275 1.4025 -7.6875 1.0625 C-4.80538698 0.10179566 -2.98899956 -0.04331883 0 0 Z " fill="#7A7896" transform="translate(272.6875,274.9375)"/>
<path d="M0 0 C6.27 0 12.54 0 19 0 C19 0.33 19 0.66 19 1 C14.05 1 9.1 1 4 1 C4 1.66 4 2.32 4 3 C3.34 3 2.68 3 2 3 C2.33 4.32 2.66 5.64 3 7 C2.01 7 1.02 7 0 7 C0 4.69 0 2.38 0 0 Z " fill="#474462" transform="translate(418,266)"/>
<path d="M0 0 C0.66 0 1.32 0 2 0 C2.0272415 1.41655793 2.04650467 2.83327045 2.0625 4.25 C2.07410156 5.03890625 2.08570313 5.8278125 2.09765625 6.640625 C2.00385306 8.90691002 1.63241063 10.8288895 1 13 C0.01 13 -0.98 13 -2 13 C-2.23509196 8.18061476 -1.45184478 4.53701494 0 0 Z " fill="#2E8BC0" transform="translate(278,213)"/>
<path d="M0 0 C3.63559661 3.43361902 6.36113346 6.7973607 9 11 C6.03 10.505 6.03 10.505 3 10 C3 8.68 3 7.36 3 6 C2.01 6.33 1.02 6.66 0 7 C0 4.69 0 2.38 0 0 Z " fill="#449ECE" transform="translate(351,123)"/>
<path d="M0 0 C2.475 0.99 2.475 0.99 5 2 C4.34 2.66 3.68 3.32 3 4 C3 4.99 3 5.98 3 7 C0.69 7 -1.62 7 -4 7 C-3.43628586 3.73045798 -2.50037734 2.17424117 0 0 Z " fill="#62ABD6" transform="translate(302,320)"/>
<path d="M0 0 C1.67542976 0.28604898 3.34385343 0.61781233 5 1 C5 2.98 5 4.96 5 7 C3.33388095 7.042721 1.66617115 7.04063832 0 7 C-1 6 -1 6 -1.125 3.5 C-1 1 -1 1 0 0 Z " fill="#368FC2" transform="translate(397,322)"/>
<path d="M0 0 C2.36280927 2.14800843 3.58340234 4.16680467 5 7 C5.66 7.33 6.32 7.66 7 8 C7 8.66 7 9.32 7 10 C5.68 10 4.36 10 3 10 C3 9.34 3 8.68 3 8 C1.68 8 0.36 8 -1 8 C-0.67 5.36 -0.34 2.72 0 0 Z " fill="#6F6D88" transform="translate(383,279)"/>
<path d="M0 0 C1.32 0 2.64 0 4 0 C4 2.31 4 4.62 4 7 C2.35 7 0.7 7 -1 7 C-1.04254356 5.00045254 -1.04080783 2.99958364 -1 1 C-0.67 0.67 -0.34 0.34 0 0 Z " fill="#1788C9" transform="translate(272,322)"/>
<path d="M0 0 C0.33 0 0.66 0 1 0 C2.28571429 7.42857143 2.28571429 7.42857143 1 11 C0.01 11 -0.98 11 -2 11 C-3.25 8.875 -3.25 8.875 -4 6 C-2.1875 2.6875 -2.1875 2.6875 0 0 Z " fill="#45446A" transform="translate(265,286)"/>
<path d="M0 0 C1.98 0 3.96 0 6 0 C5.67 0.99 5.34 1.98 5 3 C4.01 2.67 3.02 2.34 2 2 C1.67 8.27 1.34 14.54 1 21 C0.67 21 0.34 21 0 21 C0 14.07 0 7.14 0 0 Z " fill="#444260" transform="translate(292,276)"/>
<path d="M0 0 C1.32 0 2.64 0 4 0 C4 2.31 4 4.62 4 7 C2.35 7 0.7 7 -1 7 C-0.67 4.69 -0.34 2.38 0 0 Z " fill="#1E87C4" transform="translate(424,322)"/>
<path d="M0 0 C1.65 0 3.3 0 5 0 C5 1.98 5 3.96 5 6 C4.01 6 3.02 6 2 6 C2 6.66 2 7.32 2 8 C1.34 8 0.68 8 0 8 C0 5.36 0 2.72 0 0 Z " fill="#2287C0" transform="translate(285,322)"/>
<path d="M0 0 C2.06242617 -0.02717692 4.12495703 -0.0464758 6.1875 -0.0625 C7.33605469 -0.07410156 8.48460937 -0.08570312 9.66796875 -0.09765625 C12.59300586 -0.01192832 15.16316291 0.32150977 18 1 C18 1.66 18 2.32 18 3 C11.64012196 3.20190089 6.14778871 2.6277833 0 1 C0 0.67 0 0.34 0 0 Z " fill="#3992C4" transform="translate(300,78)"/>
<path d="M0 0 C0.33 0 0.66 0 1 0 C1.80744585 5.47820952 2.44274192 10.56197276 1 16 C-1 17.3125 -1 17.3125 -3 18 C-3.33 18.66 -3.66 19.32 -4 20 C-3.625 17.0625 -3.625 17.0625 -3 14 C-2.34 13.67 -1.68 13.34 -1 13 C-0.53045739 9.95418731 -0.53045739 9.95418731 -0.375 6.4375 C-0.30023438 5.23996094 -0.22546875 4.04242188 -0.1484375 2.80859375 C-0.09945312 1.88175781 -0.05046875 0.95492188 0 0 Z " fill="#7C7A91" transform="translate(255,281)"/>
<path d="M0 0 C1.32 0.66 2.64 1.32 4 2 C3.67 3.65 3.34 5.3 3 7 C1.02 7.33 -0.96 7.66 -3 8 C-2.67 6.02 -2.34 4.04 -2 2 C-1.34 2 -0.68 2 0 2 C0 1.34 0 0.68 0 0 Z " fill="#464468" transform="translate(283,283)"/>
<path d="M0 0 C0.66 0 1.32 0 2 0 C2.33 2.97 2.66 5.94 3 9 C2.01 9.66 1.02 10.32 0 11 C-1 10 -1 10 -1.1328125 7.96875 C-1.13023437 7.1540625 -1.12765625 6.339375 -1.125 5.5 C-1.12757813 4.6853125 -1.13015625 3.870625 -1.1328125 3.03125 C-1 1 -1 1 0 0 Z " fill="#6FA2C5" transform="translate(210,320)"/>
<path d="M0 0 C1.4540625 0.0309375 1.4540625 0.0309375 2.9375 0.0625 C3.71592938 3.46812852 4.03728121 6.57015756 3.9375 10.0625 C1.7855563 6.83458445 1.73663557 5.77849191 1.9375 2.0625 C0.2875 2.0625 -1.3625 2.0625 -3.0625 2.0625 C-3.0625 3.7125 -3.0625 5.3625 -3.0625 7.0625 C-3.3925 7.0625 -3.7225 7.0625 -4.0625 7.0625 C-4.10504356 5.06295254 -4.10330783 3.06208364 -4.0625 1.0625 C-3.0625 0.0625 -3.0625 0.0625 0 0 Z " fill="#90C1D9" transform="translate(412.0625,319.9375)"/>
<path d="M0 0 C7.42857143 -0.28571429 7.42857143 -0.28571429 11 2 C10.34 2.66 9.68 3.32 9 4 C8.34 3.67 7.68 3.34 7 3 C6.67 3.66 6.34 4.32 6 5 C5.67 4.34 5.34 3.68 5 3 C4.34 3 3.68 3 3 3 C2.34 3.66 1.68 4.32 1 5 C0.67 3.35 0.34 1.7 0 0 Z " fill="#838296" transform="translate(197,275)"/>
<path d="M0 0 C0.33 0.66 0.66 1.32 1 2 C0.34 2 -0.32 2 -1 2 C-1 2.99 -1 3.98 -1 5 C-0.34 5 0.32 5 1 5 C0.67 5.99 0.34 6.98 0 8 C-1.65 7.67 -3.3 7.34 -5 7 C-5 5.35 -5 3.7 -5 2 C-3.35 1.34 -1.7 0.68 0 0 Z " fill="#636184" transform="translate(246,293)"/>
<path d="M0 0 C5.28 0 10.56 0 16 0 C16.33 0.66 16.66 1.32 17 2 C11.0853971 3.59854133 5.84715547 2.25890714 0 1 C0 0.67 0 0.34 0 0 Z " fill="#5AACD5" transform="translate(334,241)"/>
<path d="M0 0 C3.63 0 7.26 0 11 0 C10.34 1.65 9.68 3.3 9 5 C8.4225 4.525625 7.845 4.05125 7.25 3.5625 C5.07417916 2.0515133 3.57397552 1.45963849 1 1 C1 1.99 1 2.98 1 4 C0.34 4 -0.32 4 -1 4 C-0.67 2.68 -0.34 1.36 0 0 Z " fill="#7A798E" transform="translate(464,266)"/>
<path d="M0 0 C0.05429959 1.74965358 0.09292823 3.49979787 0.125 5.25 C0.14820313 6.22453125 0.17140625 7.1990625 0.1953125 8.203125 C0 11 0 11 -2 15 C-2.33 10.38 -2.66 5.76 -3 1 C-1 0 -1 0 0 0 Z " fill="#2D93C7" transform="translate(254,198)"/>
<path d="M0 0 C0.99 0 1.98 0 3 0 C3 0.66 3 1.32 3 2 C3.66 2.33 4.32 2.66 5 3 C2.36 4.98 -0.28 6.96 -3 9 C-3.33 7.68 -3.66 6.36 -4 5 C-2.35 5 -0.7 5 1 5 C0.67 3.35 0.34 1.7 0 0 Z " fill="#469CCA" transform="translate(354,188)"/>
<path d="M0 0 C1.67542976 0.28604898 3.34385343 0.61781233 5 1 C5 2.98 5 4.96 5 7 C4.34 7 3.68 7 3 7 C3 5.68 3 4.36 3 3 C2.01 3 1.02 3 0 3 C0 4.65 0 6.3 0 8 C-0.33 8 -0.66 8 -1 8 C-1.04241723 5.66705225 -1.04092937 3.33297433 -1 1 C-0.67 0.67 -0.34 0.34 0 0 Z " fill="#74C0E5" transform="translate(366,320)"/>
<path d="M0 0 C0.66 0.66 1.32 1.32 2 2 C1.8125 5 1.8125 5 1 8 C-2.4352048 10.29013653 -3.985331 10.17842973 -8 10 C-8 9.67 -8 9.34 -8 9 C-6.35 9 -4.7 9 -3 9 C-3 8.01 -3 7.02 -3 6 C-2.01 6 -1.02 6 0 6 C0 4.02 0 2.04 0 0 Z " fill="#63ADD0" transform="translate(390,201)"/>
<path d="M0 0 C-0.61875 0.0825 -1.2375 0.165 -1.875 0.25 C-4.16669871 0.79326091 -4.16669871 0.79326091 -5.0625 2.9375 C-5.371875 3.618125 -5.68125 4.29875 -6 5 C-6.99 5.66 -7.98 6.32 -9 7 C-9.33 6.34 -9.66 5.68 -10 5 C-9.67 4.01 -9.34 3.02 -9 2 C-8.01 2 -7.02 2 -6 2 C-6 1.34 -6 0.68 -6 0 C-3.50907189 -1.24546405 -2.58919267 -0.7767578 0 0 Z " fill="#147DB5" transform="translate(262,82)"/>
<path d="M0 0 C2 2 2 2 2.125 4.625 C2.08375 5.40875 2.0425 6.1925 2 7 C1.34 7 0.68 7 0 7 C0 8.32 0 9.64 0 11 C-0.66 11 -1.32 11 -2 11 C-1.85892253 9.54119891 -1.71197585 8.08296449 -1.5625 6.625 C-1.48128906 5.81289063 -1.40007812 5.00078125 -1.31640625 4.1640625 C-1 2 -1 2 0 0 Z " fill="#5D5B7E" transform="translate(267,291)"/>
<path d="M0 0 C1.32 0.33 2.64 0.66 4 1 C4 1.99 4 2.98 4 4 C4.33 4.99 4.66 5.98 5 7 C3.35 7 1.7 7 0 7 C0 4.69 0 2.38 0 0 Z " fill="#1C7FB8" transform="translate(235,322)"/>
<path d="M0 0 C1.98 0 3.96 0 6 0 C6.33 1.32 6.66 2.64 7 4 C4.69 4 2.38 4 0 4 C0 2.68 0 1.36 0 0 Z " fill="#464461" transform="translate(428,298)"/>
<path d="M0 0 C0.72329779 2.5832064 1.09669613 4.93472926 1.375 7.625 C1.58125 8.73875 1.7875 9.8525 2 11 C2.99 11.66 3.98 12.32 5 13 C2.625 12.6875 2.625 12.6875 0 12 C-2 9 -2 9 -1.6875 6 C-1 3 -1 3 0 0 Z " fill="#7FC0DC" transform="translate(231,204)"/>
<path d="M0 0 C-1.125 1.9375 -1.125 1.9375 -3 4 C-6.1875 4.75 -6.1875 4.75 -9 5 C-7.35234966 0.05704899 -4.76872479 -0.25776891 0 0 Z " fill="#73728A" transform="translate(190,298)"/>
<path d="M0 0 C0.99 0.33 1.98 0.66 3 1 C3.66 1 4.32 1 5 1 C4.67 2.65 4.34 4.3 4 6 C3.01 6 2.02 6 1 6 C0.67 6.66 0.34 7.32 0 8 C-1.09658936 4.71023192 -0.79953138 3.28696233 0 0 Z " fill="#4A4A67" transform="translate(306,276)"/>
<path d="M0 0 C1.4540625 0.0309375 1.4540625 0.0309375 2.9375 0.0625 C1.9475 1.5475 1.9475 1.5475 0.9375 3.0625 C-0.0525 3.0625 -1.0425 3.0625 -2.0625 3.0625 C-2.3925 4.7125 -2.7225 6.3625 -3.0625 8.0625 C-3.7225 8.0625 -4.3825 8.0625 -5.0625 8.0625 C-4.046875 0.08258929 -4.046875 0.08258929 0 0 Z " fill="#8C859D" transform="translate(316.0625,266.9375)"/>
<path d="M0 0 C0 0.66 0 1.32 0 2 C-1.609375 3.32421875 -1.609375 3.32421875 -3.75 4.6875 C-4.44609375 5.14511719 -5.1421875 5.60273438 -5.859375 6.07421875 C-8.39090725 7.16906025 -9.46100862 6.9435441 -12 6 C-9 4 -9 4 -6 4 C-6 3.34 -6 2.68 -6 2 C-2.25 0 -2.25 0 0 0 Z " fill="#65AACF" transform="translate(347,185)"/>
<path d="M0 0 C2.31 0.66 4.62 1.32 7 2 C7 2.99 7 3.98 7 5 C5.68 5.33 4.36 5.66 3 6 C2.67 4.68 2.34 3.36 2 2 C1.34 2 0.68 2 0 2 C0 1.34 0 0.68 0 0 Z " fill="#248CC9" transform="translate(280,183)"/>
<path d="M0 0 C2.64 0.33 5.28 0.66 8 1 C5.31158141 3.25245881 3.35358125 4.88213958 0 6 C-1.125 2.25 -1.125 2.25 0 0 Z " fill="#4CA3D1" transform="translate(307,122)"/>
<path d="M0 0 C0.33 0.66 0.66 1.32 1 2 C3.64 1.67 6.28 1.34 9 1 C8.401875 1.268125 7.80375 1.53625 7.1875 1.8125 C4.95672092 2.8893979 4.95672092 2.8893979 3.375 4.625 C2.92125 5.07875 2.4675 5.5325 2 6 C1.34 6 0.68 6 0 6 C-1.125 2.25 -1.125 2.25 0 0 Z " fill="#4AA3D0" transform="translate(316,116)"/>
<path d="M0 0 C2.31 0 4.62 0 7 0 C7.33 0.99 7.66 1.98 8 3 C5.03 3 2.06 3 -1 3 C-0.67 2.01 -0.34 1.02 0 0 Z " fill="#9292A0" transform="translate(389,300)"/>
<path d="M0 0 C2.475 0.495 2.475 0.495 5 1 C5 2.65 5 4.3 5 6 C4.01 6.495 4.01 6.495 3 7 C0 2.25 0 2.25 0 0 Z " fill="#5D5C77" transform="translate(384,295)"/>
<path d="M0 0 C0.66 0 1.32 0 2 0 C2.33 1.32 2.66 2.64 3 4 C3.66 4 4.32 4 5 4 C4.67 5.32 4.34 6.64 4 8 C2 6.8125 2 6.8125 0 5 C-0.25 2.3125 -0.25 2.3125 0 0 Z " fill="#75748B" transform="translate(260,293)"/>
<path d="M0 0 C0.99 0 1.98 0 3 0 C2.67 1.98 2.34 3.96 2 6 C0.35 5.67 -1.3 5.34 -3 5 C-2.67 4.01 -2.34 3.02 -2 2 C-1.34 2 -0.68 2 0 2 C0 1.34 0 0.68 0 0 Z " fill="#47466B" transform="translate(380,280)"/>
<path d="M0 0 C2.97 0.495 2.97 0.495 6 1 C6.33 2.32 6.66 3.64 7 5 C4.03 4.67 1.06 4.34 -2 4 C-1.34 3.67 -0.68 3.34 0 3 C0 2.01 0 1.02 0 0 Z " fill="#3292C7" transform="translate(370,239)"/>
<path d="M0 0 C2.01822917 0.06510417 4.03645833 0.13020833 6.0546875 0.1953125 C6.0546875 0.5253125 6.0546875 0.8553125 6.0546875 1.1953125 C3.4146875 1.8553125 0.7746875 2.5153125 -1.9453125 3.1953125 C-1.6153125 4.5153125 -1.2853125 5.8353125 -0.9453125 7.1953125 C-1.9353125 7.6903125 -1.9353125 7.6903125 -2.9453125 8.1953125 C-3.5703125 5.3203125 -3.5703125 5.3203125 -3.9453125 2.1953125 C-1.9453125 0.1953125 -1.9453125 0.1953125 0 0 Z " fill="#0E7DBF" transform="translate(256.9453125,108.8046875)"/>
<path d="M0 0 C2.5 0.875 2.5 0.875 3.8125 3.4375 C4.1528125 4.6440625 4.1528125 4.6440625 4.5 5.875 C3.51 6.37 3.51 6.37 2.5 6.875 C2.17 5.885 1.84 4.895 1.5 3.875 C-1.47 3.38 -1.47 3.38 -4.5 2.875 C-4.5 2.215 -4.5 1.555 -4.5 0.875 C-2.5 -0.125 -2.5 -0.125 0 0 Z " fill="#67B0D4" transform="translate(380.5,86.125)"/>
<path d="M0 0 C1.65 0 3.3 0 5 0 C4.01 0.33 3.02 0.66 2 1 C2.33 2.98 2.66 4.96 3 7 C1.68 7 0.36 7 -1 7 C-0.67 4.69 -0.34 2.38 0 0 Z " fill="#187FBA" transform="translate(409,322)"/>
<path d="M0 0 C0.33 0 0.66 0 1 0 C1.1953125 2.01822917 1.390625 4.03645833 1.5859375 6.0546875 C1.86374749 8.22668245 1.86374749 8.22668245 4 10 C3.01 10 2.02 10 1 10 C1 11.32 1 12.64 1 14 C0.34 13.67 -0.32 13.34 -1 13 C-0.67 8.71 -0.34 4.42 0 0 Z " fill="#9F9DB7" transform="translate(237,285)"/>
<path d="M0 0 C1.98 0.99 1.98 0.99 4 2 C3.67 2.99 3.34 3.98 3 5 C3.66 5 4.32 5 5 5 C4.67 5.99 4.34 6.98 4 8 C2 6.8125 2 6.8125 0 5 C-0.25 2.3125 -0.25 2.3125 0 0 Z " fill="#514F71" transform="translate(278,291)"/>
<path d="M0 0 C0.99 0 1.98 0 3 0 C2.67 2.97 2.34 5.94 2 9 C1.34 8.67 0.68 8.34 0 8 C0 5.36 0 2.72 0 0 Z " fill="#5FB4E0" transform="translate(242,194)"/>
<path d="M0 0 C1.98 0 3.96 0 6 0 C3.44609064 2.09785412 1.37080456 3.78252874 -2 4 C-3.75 2.5625 -3.75 2.5625 -5 1 C-3.35 1 -1.7 1 0 1 C0 0.67 0 0.34 0 0 Z " fill="#79B7D8" transform="translate(288,135)"/>
<path d="M0 0 C0.99 0.33 1.98 0.66 3 1 C2.67 2.98 2.34 4.96 2 7 C1.67 5.68 1.34 4.36 1 3 C-1.31 3 -3.62 3 -6 3 C-6 2.67 -6 2.34 -6 2 C-4.02 2 -2.04 2 0 2 C0 1.34 0 0.68 0 0 Z " fill="#86BBDC" transform="translate(323,320)"/>
<path d="M0 0 C0.66 0.33 1.32 0.66 2 1 C2 3.64 2 6.28 2 9 C1.01 8.67 0.02 8.34 -1 8 C-0.67 5.36 -0.34 2.72 0 0 Z " fill="#464361" transform="translate(191,284)"/>
<path d="M0 0 C0.66 0.33 1.32 0.66 2 1 C1.67 2.98 1.34 4.96 1 7 C-0.32 7.33 -1.64 7.66 -3 8 C-3 7.01 -3 6.02 -3 5 C-2.01 5 -1.02 5 0 5 C0 3.35 0 1.7 0 0 Z " fill="#509DC4" transform="translate(394,216)"/>
<path d="M0 0 C2.875 -0.125 2.875 -0.125 6 0 C6.66 0.66 7.32 1.32 8 2 C7.67 2.99 7.34 3.98 7 5 C7 4.34 7 3.68 7 3 C5.68 3.33 4.36 3.66 3 4 C2.01 2.68 1.02 1.36 0 0 Z " fill="#6EB0D4" transform="translate(363,90)"/>
<path d="M0 0 C0.66 0 1.32 0 2 0 C2.33 1.65 2.66 3.3 3 5 C3.99 5 4.98 5 6 5 C6 5.66 6 6.32 6 7 C1.32307692 5.52307692 1.32307692 5.52307692 -0.3125 2.875 C-0.539375 2.25625 -0.76625 1.6375 -1 1 C-0.67 0.67 -0.34 0.34 0 0 Z " fill="#5BA1CB" transform="translate(263,72)"/>
<path d="M0 0 C2.125 0.9375 2.125 0.9375 4 2 C4 2.99 4 3.98 4 5 C2.35 5 0.7 5 -1 5 C-1.33 3.68 -1.66 2.36 -2 1 C-1.34 0.67 -0.68 0.34 0 0 Z " fill="#504F71" transform="translate(316,297)"/>
<path d="M0 0 C1.65 0.99 3.3 1.98 5 3 C4.67 3.99 4.34 4.98 4 6 C2.68 5.67 1.36 5.34 0 5 C0 3.35 0 1.7 0 0 Z " fill="#575373" transform="translate(172,292)"/>
<path d="M0 0 C0.99 0.33 1.98 0.66 3 1 C2.34 1 1.68 1 1 1 C0.67 2.65 0.34 4.3 0 6 C-0.99 6 -1.98 6 -3 6 C-2.67 4.68 -2.34 3.36 -2 2 C-1.34 2 -0.68 2 0 2 C0 1.34 0 0.68 0 0 Z " fill="#585773" transform="translate(350,289)"/>
<path d="M0 0 C0.99 0.33 1.98 0.66 3 1 C3 1.99 3 2.98 3 4 C0.69 4.33 -1.62 4.66 -4 5 C-2.25 1.125 -2.25 1.125 0 0 Z " fill="#444266" transform="translate(463,273)"/>
<path d="M0 0 C0 0.99 0 1.98 0 3 C-2.64 3.33 -5.28 3.66 -8 4 C-5.57415142 1.34311822 -3.76063134 0 0 0 Z " fill="#057FBE" transform="translate(377,244)"/>
<path d="M0 0 C2.64 0 5.28 0 8 0 C8.33 0.99 8.66 1.98 9 3 C2.25 2.25 2.25 2.25 0 0 Z " fill="#5BACCD" transform="translate(269,79)"/>
<path d="M0 0 C0.33 1.32 0.66 2.64 1 4 C-0.65 4.33 -2.3 4.66 -4 5 C-3.6875 3.0625 -3.6875 3.0625 -3 1 C-2.01 0.67 -1.02 0.34 0 0 Z " fill="#514F6E" transform="translate(222,294)"/>
<path d="M0 0 C0.66 0 1.32 0 2 0 C0.95125002 2.62187494 0.35068687 3.79371361 -2.125 5.25 C-2.74375 5.4975 -3.3625 5.745 -4 6 C-4.66 5.01 -5.32 4.02 -6 3 C-4.02 2.67 -2.04 2.34 0 2 C0 1.34 0 0.68 0 0 Z " fill="#686786" transform="translate(215,292)"/>
<path d="M0 0 C0.99 0.33 1.98 0.66 3 1 C2.67 2.98 2.34 4.96 2 7 C1.67 6.01 1.34 5.02 1 4 C0.34 4 -0.32 4 -1 4 C-0.67 2.68 -0.34 1.36 0 0 Z " fill="#565275" transform="translate(172,280)"/>
<path d="M0 0 C0.99 0.33 1.98 0.66 3 1 C2.67 1.99 2.34 2.98 2 4 C1.34 2.68 0.68 1.36 0 0 Z M0 3 C0.33 3.99 0.66 4.98 1 6 C-0.32 6 -1.64 6 -3 6 C-2.01 5.01 -1.02 4.02 0 3 Z " fill="#464566" transform="translate(185,277)"/>
<path d="M0 0 C2.97 0.99 5.94 1.98 9 3 C9 3.33 9 3.66 9 4 C6.69 4 4.38 4 2 4 C2 3.34 2 2.68 2 2 C1.34 2 0.68 2 0 2 C0 1.34 0 0.68 0 0 Z " fill="#4AA7CF" transform="translate(359,235)"/>
<path d="M0 0 C0.66 0.99 1.32 1.98 2 3 C-0.31 3.33 -2.62 3.66 -5 4 C-5 3.34 -5 2.68 -5 2 C-3.35 1.34 -1.7 0.68 0 0 Z " fill="#3D92C3" transform="translate(322,200)"/>
<path d="M0 0 C4.875 2.75 4.875 2.75 6 5 C3.03 4.505 3.03 4.505 0 4 C0 2.68 0 1.36 0 0 Z " fill="#2D8FC2" transform="translate(354,129)"/>
<path d="M0 0 C0.99 0.33 1.98 0.66 3 1 C3 1.99 3 2.98 3 4 C1.68 4 0.36 4 -1 4 C-0.67 2.68 -0.34 1.36 0 0 Z " fill="#88ADC7" transform="translate(250,326)"/>
<path d="M0 0 C0.99 0 1.98 0 3 0 C3.33 0.99 3.66 1.98 4 3 C2.68 3.33 1.36 3.66 0 4 C0 2.68 0 1.36 0 0 Z " fill="#85B1C8" transform="translate(332,326)"/>
</svg>
